<svg xmlns="http://www.w3.org/2000/svg" viewBox="0 0 1005 587.6000003814697"><g id="wrapper" transform="translate(0,50.60000038146973)"><svg class="rv-xy-plot__inner" width="1005" height="537" viewBox="0 0 1005 537"><g transform="translate(50,10)" class="rv-xy-plot__grid-lines undefined"><line y1="493" y2="493" x1="0" x2="935" class="rv-xy-plot__grid-lines__line" style="stroke-width: 0.5;"/><line y1="363.45761000848677" y2="363.45761000848677" x1="0" x2="935" class="rv-xy-plot__grid-lines__line" style="stroke-width: 0.5;"/><line y1="233.91522001697348" y2="233.91522001697348" x1="0" x2="935" class="rv-xy-plot__grid-lines__line" style="stroke-width: 0.5;"/><line y1="104.37283002546025" y2="104.37283002546025" x1="0" x2="935" class="rv-xy-plot__grid-lines__line" style="stroke-width: 0.5;"/></g><g transform="translate(50,503)" class="rv-xy-plot__axis rv-xy-plot__axis--horizontal "><line x1="0" x2="935" y1="0" y2="0" class="rv-xy-plot__axis__line"/><g transform="translate(0, 0)" class="rv-xy-plot__axis__ticks"/></g><path d="M0,492.1061575290375L6.631205673758865,492.50851030834644L13.26241134751773,492.62857491943544L19.893617021276594,492.7737822992672L26.52482269503546,492.84514556372545L33.15602836879433,492.84928860104793L39.78723404255319,492.8748637584604L46.41843971631206,492.87551198843227L53.04964539007092,492.913735837835L59.680851063829785,492.9182852498833L66.31205673758866,492.83782734609787L72.94326241134752,492.8166537645041" class="rv-xy-plot__series rv-xy-plot__series--line " transform="translate(50,10)" style="opacity: 1; stroke-width: 1.5; stroke: rgb(125, 84, 178);" fill-opacity="0"/><path d="M0,481.101531745231L6.631205673758865,482.2402660262941L13.26241134751773,482.4023591892695L19.893617021276594,483.69926934315123L26.52482269503546,483.6229723530816L33.15602836879433,483.0013069699253L39.78723404255319,482.56914577057546L46.41843971631206,482.65108384015247L53.04964539007092,483.84389057707153" class="rv-xy-plot__series rv-xy-plot__series--line " transform="translate(50,10)" style="opacity: 1; stroke-width: 1.5; stroke: rgb(229, 116, 57);" fill-opacity="0"/><path d="M0,484.3077058258574L6.631205673758865,485.7652857056181L13.26241134751773,485.2335968802712L19.893617021276594,485.8313297034048L26.52482269503546,486.1700084066674L33.15602836879433,486.0646469663406L39.78723404255319,486.09121910748104L46.41843971631206,485.52485684015994L53.04964539007092,486.35832767429554L59.680851063829785,485.63892261123976L66.31205673758866,485.49986346295265L72.94326241134752,486.04443792836776L79.57446808510637,483.5543466230164L86.20567375886525,481.004149581276L92.83687943262412,480.0730283237772L99.46808510638299,480.0325384279957L106.09929078014184,479.3270783715424L112.7304964539007,477.24827161573296L119.36170212765957,475.8351231619836L125.99290780141844,475.111940763881L132.62411347517732,473.49199985140274L139.25531914893617,471.265647669237L145.88652482269504,473.498138605739L152.5177304964539,473.0052661562079L159.14893617021275,472.45744960130946L165.78014184397165,470.2427823355558L172.4113475177305,465.6830695599157L179.04255319148936,463.23441155093343L185.67375886524823,454.72496419181715L192.30496453900707,450.29632032452747L198.93617021276597,433.1161538086835L205.56737588652484,424.66578858133124L212.19858156028369,406.0387727214657L218.82978723404256,393.45886850933925L225.4609929078014,377.26806710252356L232.09219858156027,374.8430478189941L238.72340425531914,364.58953283493304L245.354609929078,353.0505537035517L251.98581560283688,347.95354224719847L258.6170212765958,335.3960768238373L265.24822695035465,319.4093856527496L271.87943262411346,302.97424056120144L278.51063829787233,277.630494362263L285.1418439716312,268.32139794504246L291.7730496453901,260.9581588825708L298.40425531914894,249.9281065999298" class="rv-xy-plot__series rv-xy-plot__series--line " transform="translate(50,10)" style="opacity: 1; stroke-width: 1.5; stroke: rgb(135, 206, 191);" fill-opacity="0"/><path d="M0,485.57074410004356L6.631205673758865,488.71744649671444L13.26241134751773,490.1453314006614L19.893617021276594,491.1676627477994L26.52482269503546,491.78584767276385L33.15602836879433,492.0083229971227L39.78723404255319,492.23368417704546L46.41843971631206,492.21404126002125L53.04964539007092,492.2087587802796L59.680851063829785,492.3268155779755L66.31205673758866,492.3150196623469L72.94326241134752,492.23728407415L79.57446808510637,491.91380824041613L86.20567375886525,490.9243396977607L92.83687943262412,491.2292423333617L99.46808510638299,491.5316060118781L106.09929078014184,491.5329499509947L112.7304964539007,490.79843650778L119.36170212765957,491.2933521594201L125.99290780141844,490.71180946330276L132.62411347517732,488.514397108495L139.25531914893617,487.3205780049527L145.88652482269504,487.07678311918266L152.5177304964539,486.0239179475219L159.14893617021275,485.5846208137214L165.78014184397165,483.19364837263424L172.4113475177305,480.3370764008102L179.04255319148936,478.6635404332923L185.67375886524823,477.6430548803838L192.30496453900707,478.33710071287163L198.93617021276597,476.8685883050972L205.56737588652484,474.95455756833115L212.19858156028369,471.09415320558026L218.82978723404256,469.2305560730776L225.4609929078014,469.1312028754529L232.09219858156027,468.140601455267L238.72340425531914,467.1099488235361L245.354609929078,467.62560133181347L251.98581560283688,465.52907487873L258.6170212765958,469.84633153768186L265.24822695035465,470.49040599239913L271.87943262411346,465.8583718025709L278.51063829787233,458.9483820807222L285.1418439716312,453.2057055014114L291.7730496453901,445.26964458971764L298.40425531914894,436.4250455671433L305.0354609929078,429.4070419775332L311.66666666666663,422.9624095622769L318.2978723404255,419.18390906801744L324.9290780141844,418.0855689439556L331.5602836879433,409.18570614130385L338.19148936170217,395.99573175100727L344.822695035461,390.0024825093762L351.45390070921985,373.58285981612914L358.0851063829787,364.9772949339896L364.7163120567376,347.83813049747647L371.34751773049646,328.0501272354302L377.9787234042553,304.03289648952216L384.60992907801415,288.4800840065508L391.241134751773,264.0277554374921L397.87234042553195,229.2838643606853L404.5035460992908,202.5462472846641L411.1347517730497,177.48403420246984L417.7659574468085,152.53467766447233L424.39716312056737,128.7280845045064L431.02836879432624,110.12353155885506L437.6595744680851,83.18836481422403L444.290780141844,67.83542596406988L450.9219858156028,53.32747089847334L457.55319148936167,40.859790525884534L464.18439716312054,30.633968644032393L470.8156028368794,21.5563091535401L477.4468085106383,15.896920448350443L484.07801418439715,11.885818319237671L490.709219858156,12.218681526476757L497.3404255319149,11.81865341429301L503.97163120567376,10.826745422988722L510.60283687943263,8.338478650493528L517.2340425531916,7.949980545642177L523.8652482269504,9.168367826785072L530.4964539007093,9.287379308404013L537.1276595744681,7.701770119665753L543.7588652482269,8.9626051130669L550.3900709219857,9.355017241795167L557.0212765957447,9.331750914226745L563.6524822695035,11.045848347859192L570.2836879432624,11.113773921633651L576.9148936170213,11.703736565004988L583.5460992907801,12.670072761772872L590.1773049645391,12.051940240120246L596.8085106382979,12.708760130189148L603.4397163120568,15.814177050889384L610.0709219858156,15.967335243421644L616.7021276595744,16.374090583942063L623.3333333333333,14.577176374820795L629.9645390070922,13.92968754549878L636.595744680851,16.69375493870001L643.2269503546099,14.941810128599286L649.8581560283689,15.543165653053848L656.4893617021277,15.79300803939384L663.1205673758866,16.486754763360864L669.7517730496454,18.443015858285833L676.3829787234043,17.87949496722365L683.0141843971631,19.162512959969433L689.645390070922,20.90557756695449L696.2765957446808,23.778031433127637L702.9078014184397,24.405590541892536L709.5390070921985,29.226575469112163L716.1702127659574,29.714933856835614L722.8014184397164,26.25844304429836L729.4326241134752,25.83826952536532L736.0638297872341,23.13773006812039L742.6950354609929,23.77262185273895L749.3262411347519,21.378091097206323L755.9574468085106,20.376906770733456L762.5886524822695,24.34591230879448L769.2198581560283,28.262101874212533L775.8510638297872,29.263733829955527L782.482269503546,31.97375993947992L789.113475177305,31.09835055724983L795.7446808510639,30.81655978488385L802.3758865248227,29.826402184816345L809.0070921985816,27.464883055321025L815.6382978723404,29.434628875533917L822.2695035460994,32.46530859257348L828.9007092198581,36.70183591325355L835.531914893617,41.16642112124066L842.1631205673758,41.05881399572115L848.7943262411347,39.85510153686005L855.4255319148936,39.43077674257546L862.0567375886525,38.376065158511324L868.6879432624114,37.63862397634267L875.3191489361702,33.73079593537119L881.9503546099291,34.87826882189819L888.581560283688,33.09684752425585L895.2127659574469,25.889983448178043L901.8439716312056,26.426141007396666L908.4751773049645,24.418268671545093L915.1063829787233,26.692979317835636L921.7375886524823,26.459003725504317L928.3687943262411,28.72027267575737L935,25.95897179235584" class="rv-xy-plot__series rv-xy-plot__series--line " transform="translate(50,10)" style="opacity: 1; stroke-width: 1.5; stroke: rgb(197, 101, 199);" fill-opacity="0"/><path d="M0,479.87735618717363L6.631205673758865,482.81149485137945L13.26241134751773,482.30340327785643L19.893617021276594,482.21083464444644L26.52482269503546,481.17873783921874L33.15602836879433,480.5339773689692L39.78723404255319,479.6930774716136L46.41843971631206,480.27585098519535L53.04964539007092,481.26323825174995L59.680851063829785,482.49176701317816L66.31205673758866,482.51191275476907L72.94326241134752,481.894317871518L79.57446808510637,481.42827088278887L86.20567375886525,479.6125412240873L92.83687943262412,476.5606252183728L99.46808510638299,475.1557156634798L106.09929078014184,473.4108836002109L112.7304964539007,473.8802758440529L119.36170212765957,473.7772302877891L125.99290780141844,474.1499294653088L132.62411347517732,474.33119743154873L139.25531914893617,474.76359852777813L145.88652482269504,472.83180737650963L152.5177304964539,472.23598101077647L159.14893617021275,471.9882430387055L165.78014184397165,469.66600489712926L172.4113475177305,467.61491668273595L179.04255319148936,465.12012650390125L185.67375886524823,464.2193808455064L192.30496453900707,463.5260611053372L198.93617021276597,459.44775710936415L205.56737588652484,455.0664361128065L212.19858156028369,451.60637761889734L218.82978723404256,449.80878896920586L225.4609929078014,446.03634993041254L232.09219858156027,442.35220350379615L238.72340425531914,440.14147845420285L245.354609929078,429.1341423600303L251.98581560283688,419.08986147901607L258.6170212765958,420.75565909693586L265.24822695035465,421.33334626874137L271.87943262411346,413.6611636076095L278.51063829787233,417.60733648723L285.1418439716312,415.2584604807616L291.7730496453901,408.51791409696017L298.40425531914894,398.5381724158315L305.0354609929078,387.88669625947705L311.66666666666663,383.5421138161689L318.2978723404255,368.86522056915L324.9290780141844,359.8895012380059L331.5602836879433,363.01373935928L338.19148936170217,366.6964071971959L344.822695035461,372.21312467270104L351.45390070921985,343.04554602090525L358.0851063829787,308.5269535920359L364.7163120567376,270.59923522660256L371.34751773049646,230.64174659116526L377.9787234042553,195.11142007195434L384.60992907801415,159.63341581526345L391.241134751773,135.29820860475803L397.87234042553195,114.56879158505711L404.5035460992908,89.55375170062416L411.1347517730497,75.02471822613273L417.7659574468085,66.48243805104744L424.39716312056737,54.25438818388085L431.02836879432624,46.17369125509259L437.6595744680851,37.27065986532887L444.290780141844,33.74090538487701L450.9219858156028,29.750862384575214L457.55319148936167,26.190640411276036L464.18439716312054,24.447784615292846L470.8156028368794,18.878889842695912L477.4468085106383,13.691814400932856L484.07801418439715,14.905486359371992L490.709219858156,11.963258501359235L497.3404255319149,9.997069077177741L503.97163120567376,11.848623643057863L510.60283687943263,14.322293692999324L517.2340425531916,11.990580476922275L523.8652482269504,11.142166447904572L530.4964539007093,12.136458540591036L537.1276595744681,11.606534691365596L543.7588652482269,12.582392546367771L550.3900709219857,9.761228904565485L557.0212765957447,8.31794660413152L563.6524822695035,7.498089313935964L570.2836879432624,5.207426474746455L576.9148936170213,4.6846731774260775L583.5460992907801,5.580020512141971L590.1773049645391,8.121784666755843L596.8085106382979,6.977282030594722L603.4397163120568,7.7567121745443615L610.0709219858156,7.90224260758572L616.7021276595744,5.766762776404562L623.3333333333333,5.488650294369734L629.9645390070922,8.175145204463206L636.595744680851,11.023726509987398L643.2269503546099,9.816411809662952L649.8581560283689,9.650073149335071L656.4893617021277,9.800709067397804L663.1205673758866,9.743573376643269L669.7517730496454,8.351115169391619L676.3829787234043,7.538634736799622" class="rv-xy-plot__series rv-xy-plot__series--line " transform="translate(50,10)" style="opacity: 1; stroke-width: 1.5; stroke: rgb(240, 184, 153);" fill-opacity="0"/><path d="M0,491.8729812322647L6.631205673758865,492.4461441537331L13.26241134751773,492.64735245251944L19.893617021276594,492.7396390767157L26.52482269503546,492.8047058002045L33.15602836879433,492.8397785097673L39.78723404255319,492.8559065384778L46.41843971631206,492.86654328881986L53.04964539007092,492.90752096342237L59.680851063829785,492.85311895755416L66.31205673758866,492.80583061733734L72.94326241134752,492.8154451365427L79.57446808510637,492.8452334727484L86.20567375886525,492.8086184725764L92.83687943262412,492.8058408205033L99.46808510638299,492.8287035899311L106.09929078014184,492.76853518881217L112.7304964539007,492.8366239450861L119.36170212765957,492.78944305737866L125.99290780141844,492.8018307088042L132.62411347517732,492.8238961947147L139.25531914893617,492.84328095446165L145.88652482269504,492.8455557447173L152.5177304964539,492.807217379011L159.14893617021275,492.808669817655L165.78014184397165,492.8458319978879L172.4113475177305,492.8625719146569L179.04255319148936,492.7602884484721L185.67375886524823,492.7717161022481L192.30496453900707,492.7988057598406L198.93617021276597,492.8236466556082L205.56737588652484,492.8392922834742L212.19858156028369,492.86745957190016L218.82978723404256,492.85122451883063L225.4609929078014,492.8207392000319L232.09219858156027,492.81251629976316L238.72340425531914,492.7762806321352L245.354609929078,492.79822601159395L251.98581560283688,492.81372820031004L258.6170212765958,492.86841771145805L265.24822695035465,492.9070503392213L271.87943262411346,492.9267336614834L278.51063829787233,492.93493289451476L285.1418439716312,492.93692145916106L291.7730496453901,492.835635208822L298.40425531914894,492.8686792939783L305.0354609929078,492.8482828794872L311.66666666666663,492.8528917043487L318.2978723404255,492.8960827495829L324.9290780141844,492.9056743605458L331.5602836879433,492.8972363961543L338.19148936170217,492.89317750531853L344.822695035461,492.81614461573344L351.45390070921985,492.8263858764046L358.0851063829787,492.8659489337084L364.7163120567376,492.878682789542L371.34751773049646,492.8895796654905" class="rv-xy-plot__series rv-xy-plot__series--line " transform="translate(50,10)" style="opacity: 1; stroke-width: 1.5; stroke: rgb(160, 199, 92);" fill-opacity="0"/><path d="M0,490.3961980193701L6.631205673758865,491.64880572853946L13.26241134751773,492.2203639496379L19.893617021276594,492.3301800185881L26.52482269503546,492.2849821475417L33.15602836879433,492.2858319302601L39.78723404255319,492.4489775408899L46.41843971631206,492.62145160766113L53.04964539007092,492.31804974170774L59.680851063829785,492.2911374861026L66.31205673758866,492.03536383002734L72.94326241134752,492.16270752156294L79.57446808510637,492.01325834661066L86.20567375886525,492.1250690593539L92.83687943262412,492.3833546547868L99.46808510638299,492.38183438693636L106.09929078014184,492.53331240922785L112.7304964539007,492.61724588271557L119.36170212765957,492.66312583407125L125.99290780141844,492.58510086746213L132.62411347517732,492.4710293957916L139.25531914893617,492.50083840852716L145.88652482269504,492.3487766635781L152.5177304964539,492.31937365426154L159.14893617021275,492.2548607841516L165.78014184397165,490.47094810726884L172.4113475177305,487.14359450250447L179.04255319148936,485.70235213485824L185.67375886524823,483.828508014489L192.30496453900707,482.3394130588593L198.93617021276597,480.65616654839744L205.56737588652484,481.13494122685074L212.19858156028369,482.43160287771735L218.82978723404256,484.1919115426055L225.4609929078014,486.37482347017163L232.09219858156027,485.07950255507114L238.72340425531914,484.30141229960583L245.354609929078,483.1907726959937L251.98581560283688,481.4249478651758L258.6170212765958,480.8032256520358L265.24822695035465,480.9801876971827L271.87943262411346,480.57462339422403L278.51063829787233,479.1319085364278L285.1418439716312,478.6813792148893L291.7730496453901,478.3593221310256L298.40425531914894,477.1277316859516L305.0354609929078,477.7429522647505L311.66666666666663,477.289457213918L318.2978723404255,475.56946873171177L324.9290780141844,473.2800177734336L331.5602836879433,473.669027425447L338.19148936170217,471.78541194359946L344.822695035461,471.67000290660815L351.45390070921985,470.0157850312526L358.0851063829787,472.0953229570879L364.7163120567376,472.8093391754179L371.34751773049646,469.0634554621624L377.9787234042553,473.518253812353L384.60992907801415,479.07075262016156L391.241134751773,482.6355193082871L397.87234042553195,480.2283068611464L404.5035460992908,476.54439599354214" class="rv-xy-plot__series rv-xy-plot__series--line " transform="translate(50,10)" style="opacity: 1; stroke-width: 1.5; stroke: rgb(164, 103, 80);" fill-opacity="0"/><path d="M0,492.24217703548834L6.631205673758865,492.61795934823914L13.26241134751773,492.74126106276924L19.893617021276594,492.8424141757433L26.52482269503546,492.8570202330027L33.15602836879433,492.8506677185427L39.78723404255319,492.8007513245936L46.41843971631206,492.82459728935106L53.04964539007092,492.87845441753745L59.680851063829785,492.897617980568L66.31205673758866,492.8097543494431L72.94326241134752,492.7892262364872L79.57446808510637,492.79218958478333L86.20567375886525,492.7942665762525L92.83687943262412,492.81867078109366L99.46808510638299,492.87211454821954L106.09929078014184,492.7915385202076L112.7304964539007,492.8528605104369L119.36170212765957,492.83708712365996L125.99290780141844,492.81453448845576L132.62411347517732,492.7967111659572L139.25531914893617,492.83739942509914L145.88652482269504,492.8356946384768L152.5177304964539,492.8649248695734L159.14893617021275,492.8817655950855L165.78014184397165,492.91648338405435L172.4113475177305,492.9257911968841L179.04255319148936,492.90574067992924L185.67375886524823,492.8573458440208L192.30496453900707,492.88211472503576L198.93617021276597,492.91292315596274L205.56737588652484,492.89094651216584L212.19858156028369,492.9096530565217" class="rv-xy-plot__series rv-xy-plot__series--line " transform="translate(50,10)" style="opacity: 1; stroke-width: 1.5; stroke: rgb(161, 40, 100);" fill-opacity="0"/><path d="M0,484.09396088714897L6.631205673758865,482.7009092833151L13.26241134751773,483.99337470149374L19.893617021276594,484.5442045304587L26.52482269503546,485.1845264789502L33.15602836879433,484.464953188023L39.78723404255319,484.60613172070873L46.41843971631206,484.0302044057757L53.04964539007092,483.8648233218228L59.680851063829785,482.7764307464543L66.31205673758866,481.9509593850052L72.94326241134752,482.0897518277382L79.57446808510637,481.5849192222904L86.20567375886525,479.03483553706644L92.83687943262412,476.6219242293789L99.46808510638299,474.6491491737008L106.09929078014184,474.3348618013678L112.7304964539007,473.08439448928505L119.36170212765957,473.3695824710835L125.99290780141844,471.26760260764047L132.62411347517732,467.848451828534L139.25531914893617,463.6839379940262L145.88652482269504,457.26757368967804L152.5177304964539,452.6942939078281L159.14893617021275,451.07907865385397L165.78014184397165,446.69166606801565L172.4113475177305,438.9008112130631L179.04255319148936,430.9995155369444L185.67375886524823,414.60865075145904L192.30496453900707,404.272330146061L198.93617021276597,384.5165186352873L205.56737588652484,358.8143490455809L212.19858156028369,327.10889265944877L218.82978723404256,299.6633252271067L225.4609929078014,274.9834716076233L232.09219858156027,253.49338780786377L238.72340425531914,229.78566442957646L245.354609929078,211.85952076560955L251.98581560283688,201.4519157752136L258.6170212765958,190.8271919942934L265.24822695035465,184.51044894101818L271.87943262411346,164.35750099504162L278.51063829787233,139.61085693868415L285.1418439716312,122.26866262826206L291.7730496453901,104.15905376496829L298.40425531914894,90.23683278918452L305.0354609929078,78.19812887835445L311.66666666666663,59.40778159899611L318.2978723404255,45.89847806465173L324.9290780141844,38.795371810277345L331.5602836879433,28.833360552929378L338.19148936170217,23.762540791511412L344.822695035461,17.809114989016678L351.45390070921985,12.643266366063415L358.0851063829787,9.31930062477602L364.7163120567376,8.899560254897267L371.34751773049646,9.344712693945326L377.9787234042553,8.483927300111475L384.60992907801415,4.87501086856355L391.241134751773,2.586204234988543L397.87234042553195,2.2397171228390107L404.5035460992908,2.5787758358999326L411.1347517730497,3.978314255100429L417.7659574468085,2.359738492069539L424.39716312056737,1.3000512117195626L431.02836879432624,0L437.6595744680851,0.5554496199161463L444.290780141844,3.6729327263780647L450.9219858156028,4.112260383767818L457.55319148936167,3.241655315592766L464.18439716312054,4.826908973620164L470.8156028368794,6.463989785096203L477.4468085106383,9.16839419941067L484.07801418439715,7.592997180834402L490.709219858156,7.874071869503439L497.3404255319149,7.620022062407145L503.97163120567376,5.1604418239564325L510.60283687943263,4.716140503355632L517.2340425531916,6.598731621113416L523.8652482269504,7.297234169041303L530.4964539007093,6.168519389651067L537.1276595744681,10.108291356544271L543.7588652482269,9.920914034167993L550.3900709219857,11.644594681700084L557.0212765957447,11.321837805192331L563.6524822695035,11.580673646695459" class="rv-xy-plot__series rv-xy-plot__series--line " transform="translate(50,10)" style="opacity: 1; stroke-width: 1.5; stroke: rgb(161, 169, 173);" fill-opacity="0"/><path d="M0,487.20945529680813L6.631205673758865,487.3157371630407L13.26241134751773,485.95767202219554L19.893617021276594,486.36095739313373L26.52482269503546,487.64627449700134L33.15602836879433,488.83312708597384L39.78723404255319,489.2444757954453L46.41843971631206,489.60091851800894L53.04964539007092,490.2448545105166L59.680851063829785,489.8766415096953L66.31205673758866,487.60237337610897L72.94326241134752,485.02833057358833L79.57446808510637,484.0838141799398L86.20567375886525,482.13012261990366L92.83687943262412,480.2662101895343L99.46808510638299,478.78283242242657L106.09929078014184,477.60817288960214L112.7304964539007,477.23156037701494L119.36170212765957,476.084209276566L125.99290780141844,476.22054318884517L132.62411347517732,476.75256437603076L139.25531914893617,476.08368002670943L145.88652482269504,475.51622414915437L152.5177304964539,476.5801154959338L159.14893617021275,475.2317078662264L165.78014184397165,473.9902165065007L172.4113475177305,473.4423204326721L179.04255319148936,471.95797289126455L185.67375886524823,471.14529315459856L192.30496453900707,469.4929465622541L198.93617021276597,466.1368695037362L205.56737588652484,464.8995935610411L212.19858156028369,461.77207191718117L218.82978723404256,455.95718788430196L225.4609929078014,449.37927633913245L232.09219858156027,439.3565774880914L238.72340425531914,423.59535313023696L245.354609929078,406.14424288561474L251.98581560283688,392.01400124106954L258.6170212765958,378.1282507756651L265.24822695035465,363.05169847914544L271.87943262411346,350.3592218072961L278.51063829787233,320.14763888967286L285.1418439716312,307.28009884550784L291.7730496453901,286.93440272818555L298.40425531914894,274.144412818713L305.0354609929078,258.8492234519664L311.66666666666663,241.10926405572337L318.2978723404255,233.14180564588304L324.9290780141844,214.13144261876408L331.5602836879433,202.61562313197612L338.19148936170217,186.5831568880962L344.822695035461,183.36851190725582L351.45390070921985,166.00972400437212L358.0851063829787,155.20417216359226L364.7163120567376,146.5461260194279L371.34751773049646,139.60665573124055L377.9787234042553,136.38570515743714L384.60992907801415,130.49532476700188L391.241134751773,103.18515834981037L397.87234042553195,88.67410015934524L404.5035460992908,69.60918640983783L411.1347517730497,56.23872345075546L417.7659574468085,44.217050475056965L424.39716312056737,34.46602955965392L431.02836879432624,28.53636047389989L437.6595744680851,22.40602443969982L444.290780141844,21.90935271418391L450.9219858156028,17.692379682289356L457.55319148936167,16.084625723121917L464.18439716312054,15.450953518665528L470.8156028368794,15.132642215666522L477.4468085106383,13.080268553076337L484.07801418439715,11.887199853526397L490.709219858156,9.488838713103235L497.3404255319149,8.58954124333087L503.97163120567376,9.416673069786953L510.60283687943263,9.607310061926853L517.2340425531916,9.49285532105904L523.8652482269504,9.524203906113655L530.4964539007093,11.425212675657463L537.1276595744681,9.280395550879803L543.7588652482269,9.992169807867526L550.3900709219857,10.951371155610161L557.0212765957447,11.001394839354589L563.6524822695035,10.27605781267016L570.2836879432624,9.402359946404033L576.9148936170213,9.648544753719193L583.5460992907801,11.625246386657864L590.1773049645391,12.211470242829591L596.8085106382979,10.702975704606843L603.4397163120568,11.485812843607278L610.0709219858156,10.46041073197722L616.7021276595744,10.5024458078355L623.3333333333333,9.299847911973245L629.9645390070922,10.279753496024L636.595744680851,8.959976437674527L643.2269503546099,11.007625732145527L649.8581560283689,12.467396317516659L656.4893617021277,13.28178576766004L663.1205673758866,16.188535225000805L669.7517730496454,16.6938910331358L676.3829787234043,17.878106904356912L683.0141843971631,19.95263312303001L689.645390070922,19.660921427673884L696.2765957446808,18.968025187074034L702.9078014184397,17.921369993332576L709.5390070921985,20.77999989826833L716.1702127659574,19.825100806637977L722.8014184397164,20.90391337128932L729.4326241134752,20.911017528164052L736.0638297872341,20.68593209573754L742.6950354609929,18.229697122964353L749.3262411347519,16.70760218530063L755.9574468085106,15.73698745625262L762.5886524822695,15.420272291868116L769.2198581560283,19.2908712116145L775.8510638297872,21.372783295717852L782.482269503546,20.837168323252513L789.113475177305,19.11622092894811L795.7446808510639,18.9730942241801L802.3758865248227,18.828250826449164L809.0070921985816,19.01689120322942L815.6382978723404,18.484557180947036L822.2695035460994,15.419534927932318L828.9007092198581,14.05691500268415L835.531914893617,14.680365480288856L842.1631205673758,15.212051543548L848.7943262411347,17.276330109638707L855.4255319148936,20.11706034013656" class="rv-xy-plot__series rv-xy-plot__series--line " transform="translate(50,10)" style="opacity: 1; stroke-width: 1.5; stroke: rgb(83, 135, 221);" fill-opacity="0"/><g class="rv-xy-plot__series rv-xy-plot__series--mark undefined" transform="translate(50,10)"><circle r="2" cx="855.4255319148936" cy="20.11706034013656" style="opacity: 1; stroke: rgb(83, 135, 221); fill: rgb(83, 135, 221); stroke-width: 1;"/></g><g class="rv-xy-plot__series rv-xy-plot__series--mark undefined" transform="translate(50,10)"><circle r="2" cx="563.6524822695035" cy="11.580673646695459" style="opacity: 1; stroke: rgb(161, 169, 173); fill: rgb(161, 169, 173); stroke-width: 1;"/></g><g class="rv-xy-plot__series rv-xy-plot__series--mark undefined" transform="translate(50,10)"><circle r="2" cx="212.19858156028369" cy="492.9096530565217" style="opacity: 1; stroke: rgb(161, 40, 100); fill: rgb(161, 40, 100); stroke-width: 1;"/></g><g class="rv-xy-plot__series rv-xy-plot__series--mark undefined" transform="translate(50,10)"><circle r="2" cx="404.5035460992908" cy="476.54439599354214" style="opacity: 1; stroke: rgb(164, 103, 80); fill: rgb(164, 103, 80); stroke-width: 1;"/></g><g class="rv-xy-plot__series rv-xy-plot__series--mark undefined" transform="translate(50,10)"><circle r="2" cx="371.34751773049646" cy="492.8895796654905" style="opacity: 1; stroke: rgb(160, 199, 92); fill: rgb(160, 199, 92); stroke-width: 1;"/></g><g class="rv-xy-plot__series rv-xy-plot__series--mark undefined" transform="translate(50,10)"><circle r="2" cx="676.3829787234043" cy="7.538634736799622" style="opacity: 1; stroke: rgb(240, 184, 153); fill: rgb(240, 184, 153); stroke-width: 1;"/></g><g class="rv-xy-plot__series rv-xy-plot__series--mark undefined" transform="translate(50,10)"><circle r="2" cx="935" cy="25.95897179235584" style="opacity: 1; stroke: rgb(197, 101, 199); fill: rgb(197, 101, 199); stroke-width: 1;"/></g><g class="rv-xy-plot__series rv-xy-plot__series--mark undefined" transform="translate(50,10)"><circle r="2" cx="298.40425531914894" cy="249.9281065999298" style="opacity: 1; stroke: rgb(135, 206, 191); fill: rgb(135, 206, 191); stroke-width: 1;"/></g><g class="rv-xy-plot__series rv-xy-plot__series--mark undefined" transform="translate(50,10)"><circle r="2" cx="53.04964539007092" cy="483.84389057707153" style="opacity: 1; stroke: rgb(229, 116, 57); fill: rgb(229, 116, 57); stroke-width: 1;"/></g><g class="rv-xy-plot__series rv-xy-plot__series--mark undefined" transform="translate(50,10)"><circle r="2" cx="72.94326241134752" cy="492.8166537645041" style="opacity: 1; stroke: rgb(125, 84, 178); fill: rgb(125, 84, 178); stroke-width: 1;"/></g><defs class="rv-gradient-defs "><linearGradient id="leftFadeGradient" x1="0" x2="1" y1="0" y2="0"><stop offset="0%" stop-color="white" stop-opacity="1"/><stop offset="60%" stop-color="white" stop-opacity="1"/><stop offset="100%" stop-color="white" stop-opacity="0"/></linearGradient><linearGradient id="rightFadeGradient" x1="1" x2="0" y1="0" y2="0"><stop offset="0%" stop-color="white" stop-opacity="1"/><stop offset="100%" stop-color="white" stop-opacity="0"/></linearGradient><linearGradient id="bottomFadeGradient" x1="0" x2="0" y1="1" y2="0"><stop offset="0%" stop-color="white" stop-opacity="1"/><stop offset="40%" stop-color="white" stop-opacity="1"/><stop offset="100%" stop-color="white" stop-opacity="0"/></linearGradient><linearGradient id="topFadeGradient" x1="0" x2="0" y1="0" y2="1"><stop offset="0%" stop-color="white" stop-opacity="1"/><stop offset="100%" stop-color="white" stop-opacity="0"/></linearGradient></defs><g class="rv-xy-plot__borders plot-border"><rect class="rv-xy-plot__borders-bottom plot-border-bottom" x="0" y="503" width="1005" height="34" style="fill: url(&quot;#bottomFadeGradient&quot;); opacity: 1;"/><rect class="rv-xy-plot__borders-left plot-border-left" x="0" y="0" width="50" height="537" style="fill: url(&quot;#leftFadeGradient&quot;); opacity: 1;"/><rect class="rv-xy-plot__borders-right plot-border-right" x="985" y="0" width="20" height="537" style="fill: url(&quot;#rightFadeGradient&quot;); opacity: 1;"/><rect class="rv-xy-plot__borders-top plot-border-top" x="0" y="0" width="1005" height="10" style="fill: url(&quot;#topFadeGradient&quot;); opacity: 1;"/></g><g transform="translate(50,503)" class="rv-xy-plot__axis rv-xy-plot__axis--horizontal " style="font-family: &quot;Source Sans Pro&quot;; opacity: 0.9;"><line x1="0" x2="935" y1="0" y2="0" class="rv-xy-plot__axis__line" style="font-family: &quot;Source Sans Pro&quot;; opacity: 0.9; stroke-width: 0;"/><g transform="translate(0, 0)" class="rv-xy-plot__axis__ticks"><g transform="translate(0, 0)" class="rv-xy-plot__axis__tick" style="font-family: &quot;Source Sans Pro&quot;; opacity: 0.9;"><line x1="0" x2="0" y1="-6" y2="6" class="rv-xy-plot__axis__tick__line" style="font-family: &quot;Source Sans Pro&quot;; opacity: 0.9; stroke-width: 0;"/><text text-anchor="middle" dy="0.72em" transform="translate(0, 14)" class="rv-xy-plot__axis__tick__text" style="font-family: sans-serif; opacity: 0.9;">0</text></g><g transform="translate(132.62411347517732, 0)" class="rv-xy-plot__axis__tick" style="font-family: &quot;Source Sans Pro&quot;; opacity: 0.9;"><line x1="0" x2="0" y1="-6" y2="6" class="rv-xy-plot__axis__tick__line" style="font-family: &quot;Source Sans Pro&quot;; opacity: 0.9; stroke-width: 0;"/><text text-anchor="middle" dy="0.72em" transform="translate(0, 14)" class="rv-xy-plot__axis__tick__text" style="font-family: sans-serif; opacity: 0.9;">20</text></g><g transform="translate(265.24822695035465, 0)" class="rv-xy-plot__axis__tick" style="font-family: &quot;Source Sans Pro&quot;; opacity: 0.9;"><line x1="0" x2="0" y1="-6" y2="6" class="rv-xy-plot__axis__tick__line" style="font-family: &quot;Source Sans Pro&quot;; opacity: 0.9; stroke-width: 0;"/><text text-anchor="middle" dy="0.72em" transform="translate(0, 14)" class="rv-xy-plot__axis__tick__text" style="font-family: sans-serif; opacity: 0.9;">40</text></g><g transform="translate(397.87234042553195, 0)" class="rv-xy-plot__axis__tick" style="font-family: &quot;Source Sans Pro&quot;; opacity: 0.9;"><line x1="0" x2="0" y1="-6" y2="6" class="rv-xy-plot__axis__tick__line" style="font-family: &quot;Source Sans Pro&quot;; opacity: 0.9; stroke-width: 0;"/><text text-anchor="middle" dy="0.72em" transform="translate(0, 14)" class="rv-xy-plot__axis__tick__text" style="font-family: sans-serif; opacity: 0.9;">60</text></g><g transform="translate(530.4964539007093, 0)" class="rv-xy-plot__axis__tick" style="font-family: &quot;Source Sans Pro&quot;; opacity: 0.9;"><line x1="0" x2="0" y1="-6" y2="6" class="rv-xy-plot__axis__tick__line" style="font-family: &quot;Source Sans Pro&quot;; opacity: 0.9; stroke-width: 0;"/><text text-anchor="middle" dy="0.72em" transform="translate(0, 14)" class="rv-xy-plot__axis__tick__text" style="font-family: sans-serif; opacity: 0.9;">80</text></g><g transform="translate(663.1205673758866, 0)" class="rv-xy-plot__axis__tick" style="font-family: &quot;Source Sans Pro&quot;; opacity: 0.9;"><line x1="0" x2="0" y1="-6" y2="6" class="rv-xy-plot__axis__tick__line" style="font-family: &quot;Source Sans Pro&quot;; opacity: 0.9; stroke-width: 0;"/><text text-anchor="middle" dy="0.72em" transform="translate(0, 14)" class="rv-xy-plot__axis__tick__text" style="font-family: sans-serif; opacity: 0.9;">100</text></g><g transform="translate(795.7446808510639, 0)" class="rv-xy-plot__axis__tick" style="font-family: &quot;Source Sans Pro&quot;; opacity: 0.9;"><line x1="0" x2="0" y1="-6" y2="6" class="rv-xy-plot__axis__tick__line" style="font-family: &quot;Source Sans Pro&quot;; opacity: 0.9; stroke-width: 0;"/><text text-anchor="middle" dy="0.72em" transform="translate(0, 14)" class="rv-xy-plot__axis__tick__text" style="font-family: sans-serif; opacity: 0.9;">120</text></g><g transform="translate(928.3687943262411, 0)" class="rv-xy-plot__axis__tick" style="font-family: &quot;Source Sans Pro&quot;; opacity: 0.9;"><line x1="0" x2="0" y1="-6" y2="6" class="rv-xy-plot__axis__tick__line" style="font-family: &quot;Source Sans Pro&quot;; opacity: 0.9; stroke-width: 0;"/><text text-anchor="middle" dy="0.72em" transform="translate(0, 14)" class="rv-xy-plot__axis__tick__text" style="font-family: sans-serif; opacity: 0.9;">140</text></g></g><g transform="translate(0, 0)" class="rv-xy-plot__axis__title"><g transform="translate(929, -6) rotate(0)" style="text-anchor: end; font-family: &quot;Source Sans Pro&quot;; opacity: 0.9;"><text style="font-family: sans-serif; opacity: 0.9;">Step</text></g></g></g><g transform="translate(50,503)" class="rv-xy-plot__axis rv-xy-plot__axis--horizontal "><line x1="0" x2="0" y1="0" y2="0" class="rv-xy-plot__axis__line"/><g transform="translate(0, 0)" class="rv-xy-plot__axis__ticks"><g transform="translate(0, 0)" class="rv-xy-plot__axis__tick"><line x1="0" x2="0" y1="-6" y2="6" class="rv-xy-plot__axis__tick__line"/><text text-anchor="middle" dy="0.72em" transform="translate(0, 14)" class="rv-xy-plot__axis__tick__text" style="font-family: sans-serif;"/></g><g transform="translate(132.62411347517732, 0)" class="rv-xy-plot__axis__tick"><line x1="0" x2="0" y1="-6" y2="6" class="rv-xy-plot__axis__tick__line"/><text text-anchor="middle" dy="0.72em" transform="translate(0, 14)" class="rv-xy-plot__axis__tick__text" style="font-family: sans-serif;"/></g><g transform="translate(265.24822695035465, 0)" class="rv-xy-plot__axis__tick"><line x1="0" x2="0" y1="-6" y2="6" class="rv-xy-plot__axis__tick__line"/><text text-anchor="middle" dy="0.72em" transform="translate(0, 14)" class="rv-xy-plot__axis__tick__text" style="font-family: sans-serif;"/></g><g transform="translate(397.87234042553195, 0)" class="rv-xy-plot__axis__tick"><line x1="0" x2="0" y1="-6" y2="6" class="rv-xy-plot__axis__tick__line"/><text text-anchor="middle" dy="0.72em" transform="translate(0, 14)" class="rv-xy-plot__axis__tick__text" style="font-family: sans-serif;"/></g><g transform="translate(530.4964539007093, 0)" class="rv-xy-plot__axis__tick"><line x1="0" x2="0" y1="-6" y2="6" class="rv-xy-plot__axis__tick__line"/><text text-anchor="middle" dy="0.72em" transform="translate(0, 14)" class="rv-xy-plot__axis__tick__text" style="font-family: sans-serif;"/></g><g transform="translate(663.1205673758866, 0)" class="rv-xy-plot__axis__tick"><line x1="0" x2="0" y1="-6" y2="6" class="rv-xy-plot__axis__tick__line"/><text text-anchor="middle" dy="0.72em" transform="translate(0, 14)" class="rv-xy-plot__axis__tick__text" style="font-family: sans-serif;"/></g><g transform="translate(795.7446808510639, 0)" class="rv-xy-plot__axis__tick"><line x1="0" x2="0" y1="-6" y2="6" class="rv-xy-plot__axis__tick__line"/><text text-anchor="middle" dy="0.72em" transform="translate(0, 14)" class="rv-xy-plot__axis__tick__text" style="font-family: sans-serif;"/></g><g transform="translate(928.3687943262411, 0)" class="rv-xy-plot__axis__tick"><line x1="0" x2="0" y1="-6" y2="6" class="rv-xy-plot__axis__tick__line"/><text text-anchor="middle" dy="0.72em" transform="translate(0, 14)" class="rv-xy-plot__axis__tick__text" style="font-family: sans-serif;"/></g></g></g><g transform="translate(0,10)" class="rv-xy-plot__axis rv-xy-plot__axis--vertical " style="font-family: &quot;Source Sans Pro&quot;; opacity: 0.9;"><line x1="50" x2="50" y1="0" y2="493" class="rv-xy-plot__axis__line" style="font-family: &quot;Source Sans Pro&quot;; opacity: 0.9; stroke: none;"/><g transform="translate(50, 0)" class="rv-xy-plot__axis__ticks"><g transform="translate(0, 493)" class="rv-xy-plot__axis__tick" style="font-family: &quot;Source Sans Pro&quot;; opacity: 0.9;"><line y1="0" y2="0" x1="6" x2="-6" class="rv-xy-plot__axis__tick__line" style="font-family: &quot;Source Sans Pro&quot;; opacity: 0.9; stroke: none;"/><text text-anchor="end" dy="0.32em" transform="translate(-14, 0)" class="rv-xy-plot__axis__tick__text" style="font-family: sans-serif; opacity: 0.9;">0</text></g><g transform="translate(0, 363.45761000848677)" class="rv-xy-plot__axis__tick" style="font-family: &quot;Source Sans Pro&quot;; opacity: 0.9;"><line y1="0" y2="0" x1="6" x2="-6" class="rv-xy-plot__axis__tick__line" style="font-family: &quot;Source Sans Pro&quot;; opacity: 0.9; stroke: none;"/><text text-anchor="end" dy="0.32em" transform="translate(-14, 0)" class="rv-xy-plot__axis__tick__text" style="font-family: sans-serif; opacity: 0.9;">10</text></g><g transform="translate(0, 233.91522001697348)" class="rv-xy-plot__axis__tick" style="font-family: &quot;Source Sans Pro&quot;; opacity: 0.9;"><line y1="0" y2="0" x1="6" x2="-6" class="rv-xy-plot__axis__tick__line" style="font-family: &quot;Source Sans Pro&quot;; opacity: 0.9; stroke: none;"/><text text-anchor="end" dy="0.32em" transform="translate(-14, 0)" class="rv-xy-plot__axis__tick__text" style="font-family: sans-serif; opacity: 0.9;">20</text></g><g transform="translate(0, 104.37283002546025)" class="rv-xy-plot__axis__tick" style="font-family: &quot;Source Sans Pro&quot;; opacity: 0.9;"><line y1="0" y2="0" x1="6" x2="-6" class="rv-xy-plot__axis__tick__line" style="font-family: &quot;Source Sans Pro&quot;; opacity: 0.9; stroke: none;"/><text text-anchor="end" dy="0.32em" transform="translate(-14, 0)" class="rv-xy-plot__axis__tick__text" style="font-family: sans-serif; opacity: 0.9;">30</text></g></g></g></svg></g><g id="text"><text x="50%" y="13" dominant-baseline="middle" text-anchor="middle" style="font-weight: bold; font-size: 13px; color: rgb(54, 58, 61);">Mean Score</text><text x="51.375" y="37" style="font-size: 11px; dominant-baseline: text-after-edge; fill: rgb(83, 135, 221);">━</text><text x="69.82501220703125" y="37" style="font-size: 11px; dominant-baseline: text-after-edge; fill: rgb(83, 135, 221);">ruby-gorge-17</text><text x="165.125" y="37" style="font-size: 11px; dominant-baseline: text-after-edge; fill: rgb(161, 169, 173);">━</text><text x="183.57501220703125" y="37" style="font-size: 11px; dominant-baseline: text-after-edge; fill: rgb(161, 169, 173);">faithful-elevator-16</text><text x="321.57501220703125" y="37" style="font-size: 11px; dominant-baseline: text-after-edge; fill: rgb(161, 40, 100);">━</text><text x="340.0250244140625" y="37" style="font-size: 11px; dominant-baseline: text-after-edge; fill: rgb(161, 40, 100);">splendid-moon-15</text><text x="453.625" y="37" style="font-size: 11px; dominant-baseline: text-after-edge; fill: rgb(164, 103, 80);">━</text><text x="472.07501220703125" y="37" style="font-size: 11px; dominant-baseline: text-after-edge; fill: rgb(164, 103, 80);">breezy-fire-14</text><text x="573.4750366210938" y="37" style="font-size: 11px; dominant-baseline: text-after-edge; fill: rgb(160, 199, 92);">━</text><text x="591.9249877929688" y="37" style="font-size: 11px; dominant-baseline: text-after-edge; fill: rgb(160, 199, 92);">magic-elevator-13</text><text x="711.625" y="37" style="font-size: 11px; dominant-baseline: text-after-edge; fill: rgb(240, 184, 153);">━</text><text x="730.0750732421875" y="37" style="font-size: 11px; dominant-baseline: text-after-edge; fill: rgb(240, 184, 153);">volcanic-hill-12</text><text x="843.675048828125" y="37" style="font-size: 11px; dominant-baseline: text-after-edge; fill: rgb(197, 101, 199);">━</text><text x="862.125" y="37" style="font-size: 11px; dominant-baseline: text-after-edge; fill: rgb(197, 101, 199);">worthy-violet-8</text><text x="345.97503662109375" y="49.79998779296875" style="font-size: 11px; dominant-baseline: text-after-edge; fill: rgb(135, 206, 191);">━</text><text x="364.42498779296875" y="49.79998779296875" style="font-size: 11px; dominant-baseline: text-after-edge; fill: rgb(135, 206, 191);">kind-sound-7</text><text x="453.625" y="49.79998779296875" style="font-size: 11px; dominant-baseline: text-after-edge; fill: rgb(229, 116, 57);">━</text><text x="472.07501220703125" y="49.79998779296875" style="font-size: 11px; dominant-baseline: text-after-edge; fill: rgb(229, 116, 57);">bright-brook-6</text><text x="573.4750366210938" y="49.79998779296875" style="font-size: 11px; dominant-baseline: text-after-edge; fill: rgb(125, 84, 178);">━</text><text x="591.9249877929688" y="49.79998779296875" style="font-size: 11px; dominant-baseline: text-after-edge; fill: rgb(125, 84, 178);">vital-sun-4</text></g><style xmlns="http://www.w3.org/1999/xhtml">/*&lt;![CDATA[*/<br />text { font-family:sans-serif; font-size: 10px; fill: black }<br />.react-vis-magic-css-import-rule{display:inherit}.rv-treemap{font-size:12px;position:relative}.rv-treemap__leaf{overflow:hidden;position:absolute}.rv-treemap__leaf--circle{align-items:center;border-radius:100%;display:flex;justify-content:center}.rv-treemap__leaf__content{overflow:hidden;padding:10px;text-overflow:ellipsis}.rv-xy-plot{color:#c3c3c3;position:relative}.rv-xy-plot canvas{pointer-events:none}.rv-xy-plot .rv-xy-canvas{pointer-events:none;position:absolute}.rv-xy-plot__inner{display:block}.rv-xy-plot__axis__line{fill:none;stroke-width:2px;stroke:#e6e6e9}.rv-xy-plot__axis__tick__line{stroke:#e6e6e9}.rv-xy-plot__axis__tick__text{fill:#6b6b76;font-size:11px}.rv-xy-plot__axis__title text{fill:#6b6b76;font-size:11px}.rv-xy-plot__grid-lines__line{stroke:#e6e6e9}.rv-xy-plot__circular-grid-lines__line{fill-opacity:0;stroke:#e6e6e9}.rv-xy-plot__series,.rv-xy-plot__series path{pointer-events:all}.rv-xy-plot__series--line{fill:none;stroke:#000;stroke-width:2px}.rv-crosshair{position:absolute;font-size:11px;pointer-events:none}.rv-crosshair__line{background:#47d3d9;width:1px}.rv-crosshair__inner{position:absolute;text-align:left;top:0}.rv-crosshair__inner__content{border-radius:4px;background:#3a3a48;color:#fff;font-size:12px;padding:7px 10px;box-shadow:0 2px 4px rgba(0,0,0,0.5)}.rv-crosshair__inner--left{right:4px}.rv-crosshair__inner--right{left:4px}.rv-crosshair__title{font-weight:bold;white-space:nowrap}.rv-crosshair__item{white-space:nowrap}.rv-hint{position:absolute;pointer-events:none}.rv-hint__content{border-radius:4px;padding:7px 10px;font-size:12px;background:#3a3a48;box-shadow:0 2px 4px rgba(0,0,0,0.5);color:#fff;text-align:left;white-space:nowrap}.rv-discrete-color-legend{box-sizing:border-box;overflow-y:auto;font-size:12px}.rv-discrete-color-legend.horizontal{white-space:nowrap}.rv-discrete-color-legend-item{color:#3a3a48;border-radius:1px;padding:9px 10px}.rv-discrete-color-legend-item.horizontal{display:inline-block}.rv-discrete-color-legend-item.horizontal .rv-discrete-color-legend-item__title{margin-left:0;display:block}.rv-discrete-color-legend-item__color{display:inline-block;vertical-align:middle;overflow:visible}.rv-discrete-color-legend-item__color__path{stroke:#dcdcdc;stroke-width:2px}.rv-discrete-color-legend-item__title{margin-left:10px}.rv-discrete-color-legend-item.disabled{color:#b8b8b8}.rv-discrete-color-legend-item.clickable{cursor:pointer}.rv-discrete-color-legend-item.clickable:hover{background:#f9f9f9}.rv-search-wrapper{display:flex;flex-direction:column}.rv-search-wrapper__form{flex:0}.rv-search-wrapper__form__input{width:100%;color:#a6a6a5;border:1px solid #e5e5e4;padding:7px 10px;font-size:12px;box-sizing:border-box;border-radius:2px;margin:0 0 9px;outline:0}.rv-search-wrapper__contents{flex:1;overflow:auto}.rv-continuous-color-legend{font-size:12px}.rv-continuous-color-legend .rv-gradient{height:4px;border-radius:2px;margin-bottom:5px}.rv-continuous-size-legend{font-size:12px}.rv-continuous-size-legend .rv-bubbles{text-align:justify;overflow:hidden;margin-bottom:5px;width:100%}.rv-continuous-size-legend .rv-bubble{background:#d8d9dc;display:inline-block;vertical-align:bottom}.rv-continuous-size-legend .rv-spacer{display:inline-block;font-size:0;line-height:0;width:100%}.rv-legend-titles{height:16px;position:relative}.rv-legend-titles__left,.rv-legend-titles__right,.rv-legend-titles__center{position:absolute;white-space:nowrap;overflow:hidden}.rv-legend-titles__center{display:block;text-align:center;width:100%}.rv-legend-titles__right{right:0}.rv-radial-chart .rv-xy-plot__series--label{pointer-events:none}<br /><br />/*]]&gt;*/</style></svg>