<svg xmlns="http://www.w3.org/2000/svg" viewBox="0 0 1005 424.6000003814697"><g id="wrapper" transform="translate(0,50.60000038146973)"><svg class="rv-xy-plot__inner" width="1005" height="374" viewBox="0 0 1005 374"><g transform="translate(50,10)" class="rv-xy-plot__grid-lines undefined"><line y1="330" y2="330" x1="0" x2="935" class="rv-xy-plot__grid-lines__line" style="stroke-width: 0.5;"/><line y1="277.315500102643" y2="277.315500102643" x1="0" x2="935" class="rv-xy-plot__grid-lines__line" style="stroke-width: 0.5;"/><line y1="224.63100020528597" y2="224.63100020528597" x1="0" x2="935" class="rv-xy-plot__grid-lines__line" style="stroke-width: 0.5;"/><line y1="171.94650030792894" y2="171.94650030792894" x1="0" x2="935" class="rv-xy-plot__grid-lines__line" style="stroke-width: 0.5;"/><line y1="119.26200041057194" y2="119.26200041057194" x1="0" x2="935" class="rv-xy-plot__grid-lines__line" style="stroke-width: 0.5;"/><line y1="66.57750051321494" y2="66.57750051321494" x1="0" x2="935" class="rv-xy-plot__grid-lines__line" style="stroke-width: 0.5;"/><line y1="13.893000615857886" y2="13.893000615857886" x1="0" x2="935" class="rv-xy-plot__grid-lines__line" style="stroke-width: 0.5;"/></g><g transform="translate(50,340)" class="rv-xy-plot__axis rv-xy-plot__axis--horizontal "><line x1="0" x2="935" y1="0" y2="0" class="rv-xy-plot__axis__line"/><g transform="translate(0, 0)" class="rv-xy-plot__axis__ticks"/></g><path d="M0,329.2729539176672L6.631205673758865,329.552181760882L13.26241134751773,329.63998925874824L19.893617021276594,329.72999194406117L26.52482269503546,329.7797787953514L33.15602836879433,329.7971646799289L39.78723404255319,329.8178621615688L46.41843971631206,329.82811682292675L53.04964539007092,329.8472149537127L59.680851063829785,329.85669816348224L66.31205673758866,329.84386230379414L72.94326241134752,329.84106842886206" class="rv-xy-plot__series rv-xy-plot__series--line " transform="translate(50,10)" style="opacity: 1; stroke-width: 1.5; stroke: rgb(125, 84, 178);" fill-opacity="0"/><path d="M0,320.32185758517886L6.631205673758865,321.11212506597536L13.26241134751773,321.2543732125187L19.893617021276594,321.9603454953636L26.52482269503546,322.0204058239041L33.15602836879433,321.8277561735855L39.78723404255319,321.67735447366886L46.41843971631206,321.68375187708483L53.04964539007092,322.0235668938273" class="rv-xy-plot__series rv-xy-plot__series--line " transform="translate(50,10)" style="opacity: 1; stroke-width: 1.5; stroke: rgb(229, 116, 57);" fill-opacity="0"/><path d="M0,322.9297402718073L6.631205673758865,323.94128264722684L13.26241134751773,323.6813724535426L19.893617021276594,323.9926500334786L26.52482269503546,324.1825776513634L33.15602836879433,324.1836313413378L39.78723404255319,324.2182525833536L46.41843971631206,324.05455431947433L53.04964539007092,324.28490265554353L59.680851063829785,324.12304416781L66.31205673758866,324.0787412938866L72.94326241134752,324.18758267874176L79.57446808510637,323.67461803062986L86.20567375886525,323.07688055037465L92.83687943262412,322.71689489697945L99.46808510638299,322.5079350039322L106.09929078014184,322.2135409980345L112.7304964539007,321.7089233598065L119.36170212765957,321.26518739909807L125.99290780141844,320.90375787353867L132.62411347517732,320.4304880039677L139.25531914893617,319.86398139630523L145.88652482269504,319.8048623086114L152.5177304964539,319.5118334173624L159.14893617021275,319.2201193479511L165.78014184397165,318.7561148097649L172.4113475177305,318.019154735579L179.04255319148936,317.41122718983576L185.67375886524823,316.19756968884735L192.30496453900707,315.2109343643743L198.93617021276597,313.0321924123177L205.56737588652484,311.30869232763627L212.19858156028369,308.6270164193635L218.82978723404256,306.1501922927856L225.4609929078014,303.2367262317761L232.09219858156027,301.1786522836921L238.72340425531914,298.5923496740167L245.354609929078,295.828972773777L251.98581560283688,293.4242595734059L258.6170212765958,290.519422060628L265.24822695035465,287.27544151381653L271.87943262411346,283.8467484108097L278.51063829787233,279.6926748713052L285.1418439716312,276.268516605675L291.7730496453901,272.9480734130285L298.40425531914894,269.4209582101142" class="rv-xy-plot__series rv-xy-plot__series--line " transform="translate(50,10)" style="opacity: 1; stroke-width: 1.5; stroke: rgb(135, 206, 191);" fill-opacity="0"/><path d="M0,323.95708799684274L6.631205673758865,326.1408604687771L13.26241134751773,327.11991406998607L19.893617021276594,327.7912023911738L26.52482269503546,328.2171565633231L33.15602836879433,328.4396607629162L39.78723404255319,328.62869776189405L46.41843971631206,328.7158153437057L53.04964539007092,328.7859149961689L59.680851063829785,328.8746591073458L66.31205673758866,328.92427832614004L72.94326241134752,328.94982232551934L79.57446808510637,328.9146993263728L86.20567375886525,328.7348193950296L92.83687943262412,328.76261674006844L99.46808510638299,328.8020862103593L106.09929078014184,328.8025123349813L112.7304964539007,328.6899121318351L119.36170212765957,328.73668117806704L125.99290780141844,328.64995972030596L132.62411347517732,328.3359224761514L139.25531914893617,328.0954553712804L145.88652482269504,327.94805330638405L152.5177304964539,327.71129756811547L159.14893617021275,327.52720036808904L165.78014184397165,327.1355843311438L172.4113475177305,326.65316843688356L179.04255319148936,326.23926758602863L185.67375886524823,325.86935362968507L192.30496453900707,325.6547581605894L198.93617021276597,325.2789590647213L205.56737588652484,324.8507488063768L212.19858156028369,324.23791234001874L218.82978723404256,323.7314743787958L225.4609929078014,323.3503130987302L232.09219858156027,322.91949606372293L238.72340425531914,322.4871904825613L245.354609929078,322.168310621889L251.98581560283688,321.6909791096015L258.6170212765958,321.6391017644198L265.24822695035465,321.427204068075L271.87943262411346,320.889846657091L278.51063829787233,320.1430978558018L285.1418439716312,319.376051095662L291.7730496453901,318.4042589084432L298.40425531914894,317.2796713786692L305.0354609929078,316.15754029275473L311.66666666666663,314.9963328395891L318.2978723404255,313.92628199875463L324.9290780141844,312.98606798343855L331.5602836879433,311.64141495199596L338.19148936170217,309.9807010172382L344.822695035461,308.55641497390934L351.45390070921985,306.5596908807106L358.0851063829787,304.78634839269176L364.7163120567376,302.52917341396966L371.34751773049646,299.97787704795866L377.9787234042553,297.03503664501415L384.60992907801415,294.25830029394706L391.241134751773,290.95235692885774L397.87234042553195,286.9613420515771L404.5035460992908,283.0010084420755L411.1347517730497,278.8948654751881L417.7659574468085,274.6034020695748L424.39716312056737,270.1804801451528L431.02836879432624,265.8165506596578L437.6595744680851,261.01255836893216L444.290780141844,256.4995459272375L450.9219858156028,251.9702869700351L457.55319148936167,247.48260282588706L464.18439716312054,243.0659764941869L470.8156028368794,238.70069063523988L477.4468085106383,234.48358118543254L484.07801418439715,230.3799492998213L490.709219858156,226.50270718498422L497.3404255319149,222.70434430662652L503.97163120567376,218.97911901209312L510.60283687943263,215.28592073947522L517.2340425531916,211.73423740930107L523.8652482269504,208.32304282675005L530.4964539007093,204.970708660434L537.1276595744681,201.6437277788135L543.7588652482269,198.47638618638527L550.3900709219857,195.36802494298553L557.0212765957447,192.3230084926097L563.6524822695035,189.40455392926L570.2836879432624,186.51679558146944L576.9148936170213,183.71173069855493L583.5460992907801,180.98680864461605L590.1773049645391,178.282400195071L596.8085106382979,175.67071894965207L603.4397163120568,173.19535552339633L610.0709219858156,170.71244027068767L616.7021276595744,168.2911524343122L623.3333333333333,165.86005780439004L629.9645390070922,163.49755663663439L636.595744680851,161.27577460721517L643.2269503546099,158.9946111870636L649.8581560283689,156.81099239182623L656.4893617021277,154.6661989986114L663.1205673758866,150.86427483299815L669.7517730496454,147.05929496645916L676.3829787234043,143.19288497441292L683.0141843971631,139.3657776184116L689.645390070922,135.5606923828752L696.2765957446808,131.8047617846443L702.9078014184397,128.00789533090816L709.5390070921985,124.33668140661865L716.1702127659574,120.58443872329818L722.8014184397164,116.72361328811621L729.4326241134752,112.92132033101197L736.0638297872341,109.05433080947978L742.6950354609929,105.26515629255672L749.3262411347519,101.41818688053803L755.9574468085106,97.5627879487242L762.5886524822695,93.83451671232123L769.2198581560283,90.14291388702725L775.8510638297872,86.42275606342702L782.482269503546,82.73004686365991L789.113475177305,78.98581222414478L795.7446808510639,75.30037348520096L802.3758865248227,71.58311330903041L809.0070921985816,67.80321126388196L815.6382978723404,64.14848758769176L822.2695035460994,60.53074842960285L828.9007092198581,57.028704430702476L835.531914893617,53.599786516025176L842.1631205673758,50.07097879177525L848.7943262411347,46.50645097739323L855.4255319148936,42.914527223677L862.0567375886525,39.35595275765036L868.6879432624114,35.82187658352842L875.3191489361702,32.26346017099797L881.9503546099291,28.789391640917813L888.581560283688,25.20979605990192L895.2127659574469,21.490902664271005L901.8439716312056,17.937069803129248L908.4751773049645,14.282662233931319L915.1063829787233,10.798741702590576L921.7375886524823,7.103187539892531L928.3687943262411,3.541504688441478L935,0" class="rv-xy-plot__series rv-xy-plot__series--line " transform="translate(50,10)" style="opacity: 1; stroke-width: 1.5; stroke: rgb(197, 101, 199);" fill-opacity="0"/><path d="M0,319.3261205593753L6.631205673758865,321.36237643489426L13.26241134751773,321.1753464644391L19.893617021276594,321.15822400235515L26.52482269503546,320.7001322859868L33.15602836879433,320.3868351335999L39.78723404255319,320.00800849994823L46.41843971631206,320.09333857198186L53.04964539007092,320.33473601819924L59.680851063829785,320.6764242615629L66.31205673758866,320.75195467472753L72.94326241134752,320.67133142668666L79.57446808510637,320.59581697852167L86.20567375886525,320.23869134077125L92.83687943262412,319.60288979264976L99.46808510638299,319.17465262555595L106.09929078014184,318.67407241051416L112.7304964539007,318.49019317968833L119.36170212765957,318.2624482589067L125.99290780141844,318.11911869370545L132.62411347517732,317.9786517849759L139.25531914893617,317.88927059429074L145.88652482269504,317.5382835484719L152.5177304964539,317.30523099598287L159.14893617021275,317.109999805227L165.78014184397165,316.7010140943192L172.4113475177305,316.2801760222806L179.04255319148936,315.78591040433093L185.67375886524823,315.4080288907918L192.30496453900707,315.0500710282833L198.93617021276597,314.3945115792134L205.56737588652484,313.6500243785544L212.19858156028369,312.9200048150439L218.82978723404256,312.28561207751846L225.4609929078014,311.48937663837955L232.09219858156027,310.6589351366545L238.72340425531914,309.90271481539105L245.354609929078,308.49765370803334L251.98581560283688,307.00348648573834L258.6170212765958,306.19082133856307L265.24822695035465,305.3773212788189L271.87943262411346,304.0695678051095L278.51063829787233,303.42606136783974L285.1418439716312,302.488394243532L291.7730496453901,301.2795723679064L298.40425531914894,299.80903347711876L305.0354609929078,298.1887633889705L311.66666666666663,296.8195222250356L318.2978723404255,294.849870128638L324.9290780141844,293.03613422222196L331.5602836879433,291.80766393983845L338.19148936170217,290.70506399717465L344.822695035461,289.7964590269461L351.45390070921985,287.22516279776187L358.0851063829787,284.0464728366707L364.7163120567376,280.31127358868605L371.34751773049646,276.06724837635534L377.9787234042553,271.620670309997L384.60992907801415,266.8374474424771L391.241134751773,262.24720780139285L397.87234042553195,257.64673691556135L404.5035460992908,252.7312146776315L411.1347517730497,248.10989122802488L417.7659574468085,243.70748331018942L424.39716312056737,239.17654423239458L431.02836879432624,234.80629506320705L437.6595744680851,230.43439667839937L444.290780141844,226.30350296320725L450.9219858156028,222.2322544274519L457.55319148936167,218.2479744862885L464.18439716312054,214.40605441174978L470.8156028368794,210.50394692042073L477.4468085106383,206.66118609370852L484.07801418439715,203.1048995315239L490.709219858156,199.50309577307473L497.3404255319149,196.00016630488014L503.97163120567376,192.70481212913018L510.60283687943263,189.5353588267523L517.2340425531916,186.30309643107523L523.8652482269504,183.17929995711802L530.4964539007093,180.18713995156364L537.1276595744681,177.22632585447346L543.7588652482269,174.38192413814576L550.3900709219857,171.489465814306L557.0212765957447,168.6829780629448L563.6524822695035,165.94818987831948L570.2836879432624,163.2217691820214L576.9148936170213,160.59179699161933L583.5460992907801,158.06029068375292L590.1773049645391,155.64381255685538L596.8085106382979,153.19093808657013L603.4397163120568,150.83920388349867L610.0709219858156,148.52597815981875L616.7021276595744,146.19600228664993L623.3333333333333,143.95095945362328L629.9645390070922,141.835885950513L636.595744680851,139.79157916845637L643.2269503546099,137.69797777344934L649.8581560283689,135.66588257231908L656.4893617021277,133.6818577895309L663.1205673758866,129.85669975998226L669.7517730496454,125.95335793433341L676.3829787234043,122.08073117143826" class="rv-xy-plot__series rv-xy-plot__series--line " transform="translate(50,10)" style="opacity: 1; stroke-width: 1.5; stroke: rgb(240, 184, 153);" fill-opacity="0"/><path d="M0,329.08328972227605L6.631205673758865,329.4810576876103L13.26241134751773,329.62418390913234L19.893617021276594,329.69442990742533L26.52482269503546,329.74289964624757L33.15602836879433,329.773456655505L39.78723404255319,329.7930251836009L46.41843971631206,329.8077015796728L53.04964539007092,329.8290680708203L59.680851063829785,329.82403377427596L66.31205673758866,329.8175200544343L72.94326241134752,329.82175077933147L79.57446808510637,329.8301938079724L86.20567375886525,329.8261411542248L92.83687943262412,329.8268436142077L99.46808510638299,329.83173888221376L106.09929078014184,329.8236618836968L112.7304964539007,329.83345844571363L119.36170212765957,329.8283594489077L125.99290780141844,329.83009249162876L132.62411347517732,329.8334166326194L139.25531914893617,329.8369175289629L145.88652482269504,329.8387396213099L152.5177304964539,329.83579997899005L159.14893617021275,329.836256577979L165.78014184397165,329.840528075029L172.4113475177305,329.843507526025L179.04255319148936,329.83498462365276L185.67375886524823,329.8350430178016L192.30496453900707,329.83685366896447L198.93617021276597,329.8390573539109L205.56737588652484,329.8409586694897L212.19858156028369,329.8441816037864L218.82978723404256,329.8442708199607L225.4609929078014,329.8428496666759L232.09219858156027,329.8425318871598L238.72340425531914,329.83995303632156L245.354609929078,329.8409759999169L251.98581560283688,329.8419465038407L258.6170212765958,329.84589784124466L265.24822695035465,329.84965643048264L271.87943262411346,329.85273428215L278.51063829787233,329.8553014116557L285.1418439716312,329.85751237846245L291.7730496453901,329.8533029402314L298.40425531914894,329.8555757545965L305.0354609929078,329.8551736758597L311.66666666666663,329.85588594412695L318.2978723404255,329.85882704730807L324.9290780141844,329.8604914473901L331.5602836879433,329.8612641533713L338.19148936170217,329.8621084562354L344.822695035461,329.859044114746L351.45390070921985,329.85941043952744L358.0851063829787,329.8613918733682L364.7163120567376,329.8625499060186L371.34751773049646,329.8637597348896" class="rv-xy-plot__series rv-xy-plot__series--line " transform="translate(50,10)" style="opacity: 1; stroke-width: 1.5; stroke: rgb(160, 199, 92);" fill-opacity="0"/><path d="M0,327.8820831514654L6.631205673758865,328.7513773803415L13.26241134751773,329.14299882082514L19.893617021276594,329.2558314555833L26.52482269503546,329.275061297616L33.15602836879433,329.2992961670271L39.78723404255319,329.37531237232275L46.41843971631206,329.4533983257824L53.04964539007092,329.39061596480803L59.680851063829785,329.3888598148507L66.31205673758866,329.3289910663055L72.94326241134752,329.3484683658322L79.57446808510637,329.3146962512683L86.20567375886525,329.328272641323L92.83687943262412,329.37305446523476L99.46808510638299,329.38062786192575L106.09929078014184,329.4121029760506L112.7304964539007,329.43656855535806L119.36170212765957,329.4565178026803L125.99290780141844,329.4591936206416L132.62411347517732,329.45383736327176L139.25531914893617,329.46285758805254L145.88652482269504,329.45024870901113L152.5177304964539,329.4476908384211L159.14893617021275,329.4404906235961L165.78014184397165,329.2486379951812L172.4113475177305,328.8588927832845L179.04255319148936,328.58692648076624L185.67375886524823,328.2519646666152L192.30496453900707,327.9240551354455L198.93617021276597,327.56087765927066L205.56737588652484,327.3647872296607L212.19858156028369,327.26104466655664L218.82978723404256,327.23220436431626L225.4609929078014,327.27937248611124L232.09219858156027,327.10557217866796L238.72340425531914,326.95141860110755L245.354609929078,326.76447856151793L251.98581560283688,326.5174195461652L258.6170212765958,326.3260464817771L265.24822695035465,326.1856422926889L271.87943262411346,326.01692645750296L278.51063829787233,325.7815644397173L285.1418439716312,325.5927022070973L291.7730496453901,325.41199969815506L298.40425531914894,325.1786811780276L305.0354609929078,325.0428370491825L311.66666666666663,324.8613954654931L318.2978723404255,324.608225393265L324.9290780141844,324.30564864037274L331.5602836879433,324.1239222427887L338.19148936170217,323.8341912719445L344.822695035461,323.6189131578906L351.45390070921985,323.33092297316966L358.0851063829787,323.21701447482656L364.7163120567376,323.0698245907247L371.34751773049646,322.7212205716112L377.9787234042553,322.7238165500871L384.60992907801415,322.83928366637826L391.241134751773,322.93439406919424L397.87234042553195,322.80269289866504L404.5035460992908,322.58661123014537" class="rv-xy-plot__series rv-xy-plot__series--line " transform="translate(50,10)" style="opacity: 1; stroke-width: 1.5; stroke: rgb(164, 103, 80);" fill-opacity="0"/><path d="M0,329.3835913649787L6.631205673758865,329.64437963364156L13.26241134751773,329.7330652064865L19.893617021276594,329.7997989048649L26.52482269503546,329.8208727043528L33.15602836879433,329.82877537916073L39.78723404255319,329.8178621615688L46.41843971631206,329.82811682292675L53.04964539007092,329.8472149537127L59.680851063829785,329.85775185345665L66.31205673758866,329.84146755385234L72.94326241134752,329.8371170914581L79.57446808510637,329.8370833193435L86.20567375886525,329.83705437181675L92.83687943262412,329.8412440438578L99.46808510638299,329.85116629111667L106.09929078014184,329.8407068685767L112.7304964539007,329.8495564869891L119.36170212765957,329.84887867472486L125.99290780141844,329.84668810872546L132.62411347517732,329.844455289494L139.25531914893617,329.84913075366615L145.88652482269504,329.8497346471297L152.5177304964539,329.8538005160527L159.14893617021275,329.857119639472L165.78014184397165,329.86261503795384L172.4113475177305,329.8661423476972L179.04255319148936,329.86678348180857L185.67375886524823,329.8641103274401L192.30496453900707,329.86705944823046L198.93617021276597,329.8710079531345L205.56737588652484,329.87092297813655L212.19858156028369,329.8737168530687" class="rv-xy-plot__series rv-xy-plot__series--line " transform="translate(50,10)" style="opacity: 1; stroke-width: 1.5; stroke: rgb(161, 40, 100);" fill-opacity="0"/><path d="M0,322.7558814260321L6.631205673758865,321.7891208745244L13.26241134751773,322.5065081320918L19.893617021276594,322.8349081741117L26.52482269503546,323.18473324561097L33.15602836879433,322.9701317208258L39.78723404255319,323.03360399785487L46.41843971631206,322.8638846484076L53.04964539007092,322.7974436416888L59.680851063829785,322.4824488776765L66.31205673758866,322.20652578938143L72.94326241134752,322.1385947160322L79.57446808510637,321.9542665147421L86.20567375886525,321.36501065983026L92.83687943262412,320.7401725050138L99.46808510638299,320.14602307070163L106.09929078014184,319.7965621420612L112.7304964539007,319.3278767093326L119.36170212765957,319.0785034153924L125.99290780141844,318.53532623359155L132.62411347517732,317.7887367110194L139.25531914893617,316.88970196858025L145.88652482269504,315.6503459900009L152.5177304964539,314.5094402639206L159.14893617021275,313.63872355357904L165.78014184397165,312.4890910543612L172.4113475177305,310.9432363019682L179.04255319148936,309.2705313430118L185.67375886524823,306.6805691718346L192.30496453900707,304.37794773761584L198.93617021276597,301.1108800020056L205.56737588652484,297.031028535521L212.19858156028369,292.0609345719193L218.82978723404256,286.97179512352653L225.4609929078014,281.75454661522167L232.09219858156027,276.51498959135245L238.72340425531914,270.92017269780195L245.354609929078,265.53386093231666L251.98581560283688,260.58398519450145L258.6170212765958,255.65492818783525L265.24822695035465,251.04662472222554L271.87943262411346,245.62276475750969L278.51063829787233,239.77399775760816L285.1418439716312,234.1998246404443L291.7730496453901,228.51267934947526L298.40425531914894,223.0047695228102L305.0354609929078,217.601321105756L311.66666666666663,211.8293279277973L318.2978723404255,206.27959390436504L324.9290780141844,201.08703766558497L331.5602836879433,195.82952344269555L338.19148936170217,190.8789824046792L344.822695035461,185.99129655695867L351.45390070921985,181.23536634831393L358.0851063829787,176.66875914594917L364.7163120567376,172.36064163242216L371.34751773049646,168.23973342551133L377.9787234042553,164.2047892598581L384.60992907801415,160.1657141523969L391.241134751773,156.27330450905868L397.87234042553195,152.56620869852637L404.5035460992908,149.00478394818376L411.1347517730497,145.6074322759775L417.7659574468085,142.20338776892646L424.39716312056737,138.90764942815952L431.02836879432624,135.68863269676626L437.6595744680851,132.62664704169484L444.290780141844,129.76574462157475L450.9219858156028,126.91698643056941L457.55319148936167,124.10288265401425L464.18439716312054,121.45390287823355L470.8156028368794,118.89840890685207L477.4468085106383,116.4716752935328L484.07801418439715,113.98002814793398L490.709219858156,111.60631524296653L497.3404255319149,109.27856990037284L503.97163120567376,106.92924818490499L510.60283687943263,104.68609556358945L517.2340425531916,102.57675768714435L523.8652482269504,100.49828919064157L530.4964539007093,98.4156595737958L537.1276595744681,96.54387102847176L543.7588652482269,94.61803740351667L550.3900709219857,92.79927133004918L557.0212765957447,90.97309452423616L563.6524822695035,89.20506977399123" class="rv-xy-plot__series rv-xy-plot__series--line " transform="translate(50,10)" style="opacity: 1; stroke-width: 1.5; stroke: rgb(161, 169, 173);" fill-opacity="0"/><path d="M0,325.29000581445285L6.631205673758865,325.36376411266053L13.26241134751773,324.55593513229076L19.893617021276594,324.6946709789195L26.52482269503546,325.2626098751186L33.15602836879433,325.80631390190655L39.78723404255319,326.0697363955054L46.41843971631206,326.2949626275324L53.04964539007092,326.5889713995547L59.680851063829785,326.607118282447L66.31205673758866,326.1243366941786L72.94326241134752,325.4963534344386L79.57446808510637,325.1449208102861L86.20567375886525,324.59005461717595L92.83687943262412,324.0189044753406L99.46808510638299,323.48951307070485L106.09929078014184,323.001329208303L112.7304964539007,322.6367559205935L119.36170212765957,322.18217496365736L125.99290780141844,321.90397308173345L132.62411347517732,321.70971780859674L139.25531914893617,321.40165033393987L145.88652482269504,321.1089181834446L152.5177304964539,321.00960981221647L159.14893617021275,320.68559136434015L165.78014184397165,320.3556972439719L172.4113475177305,320.08399682984776L179.04255319148936,319.7231358890135L185.67375886524823,319.4096890745859L192.30496453900707,319.01756501187316L198.93617021276597,318.4551268305404L205.56737588652484,318.0259659144065L212.19858156028369,317.4336295053628L218.82978723404256,316.5823428569314L225.4609929078014,315.58416640601905L232.09219858156027,314.2277245415996L238.72340425531914,312.29459105726846L245.354609929078,310.0026280069888L251.98581560283688,307.70013766496356L258.6170212765958,305.24236865036045L265.24822695035465,302.54854919389953L271.87943262411346,299.84828506482955L278.51063829787233,295.90479782618786L285.1418439716312,292.6741102945191L291.7730496453901,288.89403210220837L298.40425531914894,285.37359535942164L305.0354609929078,281.63394875508226L311.66666666666663,277.64982832835915L318.2978723404255,274.0863715862522L324.9290780141844,269.9239714788475L331.5602836879433,266.02872550450195L338.19148936170217,261.8625299076636L344.822695035461,258.2775103466301L351.45390070921985,254.05119741222256L358.0851063829787,250.05194372273778L364.7163120567376,246.14481169214537L371.34751773049646,242.33475028026558L377.9787234042553,238.73636873925795L384.60992907801415,235.09021499274846L391.241134751773,230.49671903292972L397.87234042553195,226.27095872717308L404.5035460992908,221.78765415456002L411.1347517730497,217.4509416468469L417.7659574468085,213.13820844286653L424.39716312056737,208.9045175864664L431.02836879432624,204.83935219140375L437.6595744680851,200.81525013172674L444.290780141844,197.06569805824472L450.9219858156028,193.2696002682009L457.55319148936167,189.63622744869684L464.18439716312054,186.12479288842107L470.8156028368794,182.71587393525428L477.4468085106383,179.33099412701029L484.07801418439715,176.04720891807986L490.709219858156,172.79353008811722L497.3404255319149,169.65445085955474L503.97163120567376,166.64952223370233L510.60283687943263,163.70766140436538L517.2340425531916,160.83154177408466L523.8652482269504,158.03121061634158L530.4964539007093,155.36428551772195L537.1276595744681,152.6445739938832L543.7588652482269,150.06472726339095L550.3900709219857,147.5613581689733L557.0212765957447,145.09643789492125L563.6524822695035,142.66433693016356L570.2836879432624,140.2766405223466L576.9148936170213,137.9703903538195L583.5460992907801,135.77208390232263L590.1773049645391,133.59769137590948L596.8085106382979,131.4125557971035L603.4397163120568,129.3305854838755L610.0709219858156,127.24636922691326L616.7021276595744,125.22908507433752L623.3333333333333,123.21833368795242L629.9645390070922,121.3022672135424L636.595744680851,119.36824314103211L643.2269503546099,117.55793038581166L649.8581560283689,115.78456212210182L656.4893617021277,114.04065519081206L663.1205673758866,110.2662850180293L669.7517730496454,106.4475544973244L676.3829787234043,102.67671418595589L683.0141843971631,98.91846546978124L689.645390070922,95.08730140737856L696.2765957446808,91.23274542754424L702.9078014184397,87.37149851637258L709.5390070921985,83.60771792783245L716.1702127659574,79.75084383005452L722.8014184397164,75.9642508535687L729.4326241134752,72.21148132526099L736.0638297872341,68.47941680495012L742.6950354609929,64.6603174927543L749.3262411347519,60.88262819655216L755.9574468085106,57.12137646395058L762.5886524822695,53.375087128985456L769.2198581560283,49.74581006567678L775.8510638297872,46.085975993110765L782.482269503546,42.39495269730264L789.113475177305,38.640549949534716L795.7446808510639,34.90379650883773L802.3758865248227,31.194755114467455L809.0070921985816,27.496408673337214L815.6382978723404,23.7390555936409L822.2695035460994,19.96537031934156L828.9007092198581,16.221925947307227L835.531914893617,12.513306028926706L842.1631205673758,8.837613922246021L848.7943262411347,5.202172772587232L855.4255319148936,1.6349053642717877" class="rv-xy-plot__series rv-xy-plot__series--line " transform="translate(50,10)" style="opacity: 1; stroke-width: 1.5; stroke: rgb(83, 135, 221);" fill-opacity="0"/><g class="rv-xy-plot__series rv-xy-plot__series--mark undefined" transform="translate(50,10)"><circle r="2" cx="855.4255319148936" cy="1.6349053642717877" style="opacity: 1; stroke: rgb(83, 135, 221); fill: rgb(83, 135, 221); stroke-width: 1;"/></g><g class="rv-xy-plot__series rv-xy-plot__series--mark undefined" transform="translate(50,10)"><circle r="2" cx="563.6524822695035" cy="89.20506977399123" style="opacity: 1; stroke: rgb(161, 169, 173); fill: rgb(161, 169, 173); stroke-width: 1;"/></g><g class="rv-xy-plot__series rv-xy-plot__series--mark undefined" transform="translate(50,10)"><circle r="2" cx="212.19858156028369" cy="329.8737168530687" style="opacity: 1; stroke: rgb(161, 40, 100); fill: rgb(161, 40, 100); stroke-width: 1;"/></g><g class="rv-xy-plot__series rv-xy-plot__series--mark undefined" transform="translate(50,10)"><circle r="2" cx="404.5035460992908" cy="322.58661123014537" style="opacity: 1; stroke: rgb(164, 103, 80); fill: rgb(164, 103, 80); stroke-width: 1;"/></g><g class="rv-xy-plot__series rv-xy-plot__series--mark undefined" transform="translate(50,10)"><circle r="2" cx="371.34751773049646" cy="329.8637597348896" style="opacity: 1; stroke: rgb(160, 199, 92); fill: rgb(160, 199, 92); stroke-width: 1;"/></g><g class="rv-xy-plot__series rv-xy-plot__series--mark undefined" transform="translate(50,10)"><circle r="2" cx="676.3829787234043" cy="122.08073117143826" style="opacity: 1; stroke: rgb(240, 184, 153); fill: rgb(240, 184, 153); stroke-width: 1;"/></g><g class="rv-xy-plot__series rv-xy-plot__series--mark undefined" transform="translate(50,10)"><circle r="2" cx="935" cy="0" style="opacity: 1; stroke: rgb(197, 101, 199); fill: rgb(197, 101, 199); stroke-width: 1;"/></g><g class="rv-xy-plot__series rv-xy-plot__series--mark undefined" transform="translate(50,10)"><circle r="2" cx="298.40425531914894" cy="269.4209582101142" style="opacity: 1; stroke: rgb(135, 206, 191); fill: rgb(135, 206, 191); stroke-width: 1;"/></g><g class="rv-xy-plot__series rv-xy-plot__series--mark undefined" transform="translate(50,10)"><circle r="2" cx="53.04964539007092" cy="322.0235668938273" style="opacity: 1; stroke: rgb(229, 116, 57); fill: rgb(229, 116, 57); stroke-width: 1;"/></g><g class="rv-xy-plot__series rv-xy-plot__series--mark undefined" transform="translate(50,10)"><circle r="2" cx="72.94326241134752" cy="329.84106842886206" style="opacity: 1; stroke: rgb(125, 84, 178); fill: rgb(125, 84, 178); stroke-width: 1;"/></g><defs class="rv-gradient-defs "><linearGradient id="leftFadeGradient" x1="0" x2="1" y1="0" y2="0"><stop offset="0%" stop-color="white" stop-opacity="1"/><stop offset="60%" stop-color="white" stop-opacity="1"/><stop offset="100%" stop-color="white" stop-opacity="0"/></linearGradient><linearGradient id="rightFadeGradient" x1="1" x2="0" y1="0" y2="0"><stop offset="0%" stop-color="white" stop-opacity="1"/><stop offset="100%" stop-color="white" stop-opacity="0"/></linearGradient><linearGradient id="bottomFadeGradient" x1="0" x2="0" y1="1" y2="0"><stop offset="0%" stop-color="white" stop-opacity="1"/><stop offset="40%" stop-color="white" stop-opacity="1"/><stop offset="100%" stop-color="white" stop-opacity="0"/></linearGradient><linearGradient id="topFadeGradient" x1="0" x2="0" y1="0" y2="1"><stop offset="0%" stop-color="white" stop-opacity="1"/><stop offset="100%" stop-color="white" stop-opacity="0"/></linearGradient></defs><g class="rv-xy-plot__borders plot-border"><rect class="rv-xy-plot__borders-bottom plot-border-bottom" x="0" y="340" width="1005" height="34" style="fill: url(&quot;#bottomFadeGradient&quot;); opacity: 1;"/><rect class="rv-xy-plot__borders-left plot-border-left" x="0" y="0" width="50" height="374" style="fill: url(&quot;#leftFadeGradient&quot;); opacity: 1;"/><rect class="rv-xy-plot__borders-right plot-border-right" x="985" y="0" width="20" height="374" style="fill: url(&quot;#rightFadeGradient&quot;); opacity: 1;"/><rect class="rv-xy-plot__borders-top plot-border-top" x="0" y="0" width="1005" height="10" style="fill: url(&quot;#topFadeGradient&quot;); opacity: 1;"/></g><g transform="translate(50,340)" class="rv-xy-plot__axis rv-xy-plot__axis--horizontal " style="font-family: &quot;Source Sans Pro&quot;; opacity: 0.9;"><line x1="0" x2="935" y1="0" y2="0" class="rv-xy-plot__axis__line" style="font-family: &quot;Source Sans Pro&quot;; opacity: 0.9; stroke-width: 0;"/><g transform="translate(0, 0)" class="rv-xy-plot__axis__ticks"><g transform="translate(0, 0)" class="rv-xy-plot__axis__tick" style="font-family: &quot;Source Sans Pro&quot;; opacity: 0.9;"><line x1="0" x2="0" y1="-6" y2="6" class="rv-xy-plot__axis__tick__line" style="font-family: &quot;Source Sans Pro&quot;; opacity: 0.9; stroke-width: 0;"/><text text-anchor="middle" dy="0.72em" transform="translate(0, 14)" class="rv-xy-plot__axis__tick__text" style="font-family: sans-serif; opacity: 0.9;">0</text></g><g transform="translate(132.62411347517732, 0)" class="rv-xy-plot__axis__tick" style="font-family: &quot;Source Sans Pro&quot;; opacity: 0.9;"><line x1="0" x2="0" y1="-6" y2="6" class="rv-xy-plot__axis__tick__line" style="font-family: &quot;Source Sans Pro&quot;; opacity: 0.9; stroke-width: 0;"/><text text-anchor="middle" dy="0.72em" transform="translate(0, 14)" class="rv-xy-plot__axis__tick__text" style="font-family: sans-serif; opacity: 0.9;">20</text></g><g transform="translate(265.24822695035465, 0)" class="rv-xy-plot__axis__tick" style="font-family: &quot;Source Sans Pro&quot;; opacity: 0.9;"><line x1="0" x2="0" y1="-6" y2="6" class="rv-xy-plot__axis__tick__line" style="font-family: &quot;Source Sans Pro&quot;; opacity: 0.9; stroke-width: 0;"/><text text-anchor="middle" dy="0.72em" transform="translate(0, 14)" class="rv-xy-plot__axis__tick__text" style="font-family: sans-serif; opacity: 0.9;">40</text></g><g transform="translate(397.87234042553195, 0)" class="rv-xy-plot__axis__tick" style="font-family: &quot;Source Sans Pro&quot;; opacity: 0.9;"><line x1="0" x2="0" y1="-6" y2="6" class="rv-xy-plot__axis__tick__line" style="font-family: &quot;Source Sans Pro&quot;; opacity: 0.9; stroke-width: 0;"/><text text-anchor="middle" dy="0.72em" transform="translate(0, 14)" class="rv-xy-plot__axis__tick__text" style="font-family: sans-serif; opacity: 0.9;">60</text></g><g transform="translate(530.4964539007093, 0)" class="rv-xy-plot__axis__tick" style="font-family: &quot;Source Sans Pro&quot;; opacity: 0.9;"><line x1="0" x2="0" y1="-6" y2="6" class="rv-xy-plot__axis__tick__line" style="font-family: &quot;Source Sans Pro&quot;; opacity: 0.9; stroke-width: 0;"/><text text-anchor="middle" dy="0.72em" transform="translate(0, 14)" class="rv-xy-plot__axis__tick__text" style="font-family: sans-serif; opacity: 0.9;">80</text></g><g transform="translate(663.1205673758866, 0)" class="rv-xy-plot__axis__tick" style="font-family: &quot;Source Sans Pro&quot;; opacity: 0.9;"><line x1="0" x2="0" y1="-6" y2="6" class="rv-xy-plot__axis__tick__line" style="font-family: &quot;Source Sans Pro&quot;; opacity: 0.9; stroke-width: 0;"/><text text-anchor="middle" dy="0.72em" transform="translate(0, 14)" class="rv-xy-plot__axis__tick__text" style="font-family: sans-serif; opacity: 0.9;">100</text></g><g transform="translate(795.7446808510639, 0)" class="rv-xy-plot__axis__tick" style="font-family: &quot;Source Sans Pro&quot;; opacity: 0.9;"><line x1="0" x2="0" y1="-6" y2="6" class="rv-xy-plot__axis__tick__line" style="font-family: &quot;Source Sans Pro&quot;; opacity: 0.9; stroke-width: 0;"/><text text-anchor="middle" dy="0.72em" transform="translate(0, 14)" class="rv-xy-plot__axis__tick__text" style="font-family: sans-serif; opacity: 0.9;">120</text></g><g transform="translate(928.3687943262411, 0)" class="rv-xy-plot__axis__tick" style="font-family: &quot;Source Sans Pro&quot;; opacity: 0.9;"><line x1="0" x2="0" y1="-6" y2="6" class="rv-xy-plot__axis__tick__line" style="font-family: &quot;Source Sans Pro&quot;; opacity: 0.9; stroke-width: 0;"/><text text-anchor="middle" dy="0.72em" transform="translate(0, 14)" class="rv-xy-plot__axis__tick__text" style="font-family: sans-serif; opacity: 0.9;">140</text></g></g><g transform="translate(0, 0)" class="rv-xy-plot__axis__title"><g transform="translate(929, -6) rotate(0)" style="text-anchor: end; font-family: &quot;Source Sans Pro&quot;; opacity: 0.9;"><text style="font-family: sans-serif; opacity: 0.9;">Step</text></g></g></g><g transform="translate(50,340)" class="rv-xy-plot__axis rv-xy-plot__axis--horizontal "><line x1="0" x2="0" y1="0" y2="0" class="rv-xy-plot__axis__line"/><g transform="translate(0, 0)" class="rv-xy-plot__axis__ticks"><g transform="translate(0, 0)" class="rv-xy-plot__axis__tick"><line x1="0" x2="0" y1="-6" y2="6" class="rv-xy-plot__axis__tick__line"/><text text-anchor="middle" dy="0.72em" transform="translate(0, 14)" class="rv-xy-plot__axis__tick__text" style="font-family: sans-serif;"/></g><g transform="translate(132.62411347517732, 0)" class="rv-xy-plot__axis__tick"><line x1="0" x2="0" y1="-6" y2="6" class="rv-xy-plot__axis__tick__line"/><text text-anchor="middle" dy="0.72em" transform="translate(0, 14)" class="rv-xy-plot__axis__tick__text" style="font-family: sans-serif;"/></g><g transform="translate(265.24822695035465, 0)" class="rv-xy-plot__axis__tick"><line x1="0" x2="0" y1="-6" y2="6" class="rv-xy-plot__axis__tick__line"/><text text-anchor="middle" dy="0.72em" transform="translate(0, 14)" class="rv-xy-plot__axis__tick__text" style="font-family: sans-serif;"/></g><g transform="translate(397.87234042553195, 0)" class="rv-xy-plot__axis__tick"><line x1="0" x2="0" y1="-6" y2="6" class="rv-xy-plot__axis__tick__line"/><text text-anchor="middle" dy="0.72em" transform="translate(0, 14)" class="rv-xy-plot__axis__tick__text" style="font-family: sans-serif;"/></g><g transform="translate(530.4964539007093, 0)" class="rv-xy-plot__axis__tick"><line x1="0" x2="0" y1="-6" y2="6" class="rv-xy-plot__axis__tick__line"/><text text-anchor="middle" dy="0.72em" transform="translate(0, 14)" class="rv-xy-plot__axis__tick__text" style="font-family: sans-serif;"/></g><g transform="translate(663.1205673758866, 0)" class="rv-xy-plot__axis__tick"><line x1="0" x2="0" y1="-6" y2="6" class="rv-xy-plot__axis__tick__line"/><text text-anchor="middle" dy="0.72em" transform="translate(0, 14)" class="rv-xy-plot__axis__tick__text" style="font-family: sans-serif;"/></g><g transform="translate(795.7446808510639, 0)" class="rv-xy-plot__axis__tick"><line x1="0" x2="0" y1="-6" y2="6" class="rv-xy-plot__axis__tick__line"/><text text-anchor="middle" dy="0.72em" transform="translate(0, 14)" class="rv-xy-plot__axis__tick__text" style="font-family: sans-serif;"/></g><g transform="translate(928.3687943262411, 0)" class="rv-xy-plot__axis__tick"><line x1="0" x2="0" y1="-6" y2="6" class="rv-xy-plot__axis__tick__line"/><text text-anchor="middle" dy="0.72em" transform="translate(0, 14)" class="rv-xy-plot__axis__tick__text" style="font-family: sans-serif;"/></g></g></g><g transform="translate(0,10)" class="rv-xy-plot__axis rv-xy-plot__axis--vertical " style="font-family: &quot;Source Sans Pro&quot;; opacity: 0.9;"><line x1="50" x2="50" y1="0" y2="330" class="rv-xy-plot__axis__line" style="font-family: &quot;Source Sans Pro&quot;; opacity: 0.9; stroke: none;"/><g transform="translate(50, 0)" class="rv-xy-plot__axis__ticks"><g transform="translate(0, 330)" class="rv-xy-plot__axis__tick" style="font-family: &quot;Source Sans Pro&quot;; opacity: 0.9;"><line y1="0" y2="0" x1="6" x2="-6" class="rv-xy-plot__axis__tick__line" style="font-family: &quot;Source Sans Pro&quot;; opacity: 0.9; stroke: none;"/><text text-anchor="end" dy="0.32em" transform="translate(-14, 0)" class="rv-xy-plot__axis__tick__text" style="font-family: sans-serif; opacity: 0.9;">0</text></g><g transform="translate(0, 277.315500102643)" class="rv-xy-plot__axis__tick" style="font-family: &quot;Source Sans Pro&quot;; opacity: 0.9;"><line y1="0" y2="0" x1="6" x2="-6" class="rv-xy-plot__axis__tick__line" style="font-family: &quot;Source Sans Pro&quot;; opacity: 0.9; stroke: none;"/><text text-anchor="end" dy="0.32em" transform="translate(-14, 0)" class="rv-xy-plot__axis__tick__text" style="font-family: sans-serif; opacity: 0.9;">5</text></g><g transform="translate(0, 224.63100020528597)" class="rv-xy-plot__axis__tick" style="font-family: &quot;Source Sans Pro&quot;; opacity: 0.9;"><line y1="0" y2="0" x1="6" x2="-6" class="rv-xy-plot__axis__tick__line" style="font-family: &quot;Source Sans Pro&quot;; opacity: 0.9; stroke: none;"/><text text-anchor="end" dy="0.32em" transform="translate(-14, 0)" class="rv-xy-plot__axis__tick__text" style="font-family: sans-serif; opacity: 0.9;">10</text></g><g transform="translate(0, 171.94650030792894)" class="rv-xy-plot__axis__tick" style="font-family: &quot;Source Sans Pro&quot;; opacity: 0.9;"><line y1="0" y2="0" x1="6" x2="-6" class="rv-xy-plot__axis__tick__line" style="font-family: &quot;Source Sans Pro&quot;; opacity: 0.9; stroke: none;"/><text text-anchor="end" dy="0.32em" transform="translate(-14, 0)" class="rv-xy-plot__axis__tick__text" style="font-family: sans-serif; opacity: 0.9;">15</text></g><g transform="translate(0, 119.26200041057194)" class="rv-xy-plot__axis__tick" style="font-family: &quot;Source Sans Pro&quot;; opacity: 0.9;"><line y1="0" y2="0" x1="6" x2="-6" class="rv-xy-plot__axis__tick__line" style="font-family: &quot;Source Sans Pro&quot;; opacity: 0.9; stroke: none;"/><text text-anchor="end" dy="0.32em" transform="translate(-14, 0)" class="rv-xy-plot__axis__tick__text" style="font-family: sans-serif; opacity: 0.9;">20</text></g><g transform="translate(0, 66.57750051321494)" class="rv-xy-plot__axis__tick" style="font-family: &quot;Source Sans Pro&quot;; opacity: 0.9;"><line y1="0" y2="0" x1="6" x2="-6" class="rv-xy-plot__axis__tick__line" style="font-family: &quot;Source Sans Pro&quot;; opacity: 0.9; stroke: none;"/><text text-anchor="end" dy="0.32em" transform="translate(-14, 0)" class="rv-xy-plot__axis__tick__text" style="font-family: sans-serif; opacity: 0.9;">25</text></g><g transform="translate(0, 13.893000615857886)" class="rv-xy-plot__axis__tick" style="font-family: &quot;Source Sans Pro&quot;; opacity: 0.9;"><line y1="0" y2="0" x1="6" x2="-6" class="rv-xy-plot__axis__tick__line" style="font-family: &quot;Source Sans Pro&quot;; opacity: 0.9; stroke: none;"/><text text-anchor="end" dy="0.32em" transform="translate(-14, 0)" class="rv-xy-plot__axis__tick__text" style="font-family: sans-serif; opacity: 0.9;">30</text></g></g></g></svg></g><g id="text"><text x="50%" y="13" dominant-baseline="middle" text-anchor="middle" style="font-weight: bold; font-size: 13px; color: rgb(54, 58, 61);">Average Score</text><text x="51.375" y="37" style="font-size: 11px; dominant-baseline: text-after-edge; fill: rgb(83, 135, 221);">━</text><text x="69.82501220703125" y="37" style="font-size: 11px; dominant-baseline: text-after-edge; fill: rgb(83, 135, 221);">ruby-gorge-17</text><text x="165.125" y="37" style="font-size: 11px; dominant-baseline: text-after-edge; fill: rgb(161, 169, 173);">━</text><text x="183.57501220703125" y="37" style="font-size: 11px; dominant-baseline: text-after-edge; fill: rgb(161, 169, 173);">faithful-elevator-16</text><text x="321.57501220703125" y="37" style="font-size: 11px; dominant-baseline: text-after-edge; fill: rgb(161, 40, 100);">━</text><text x="340.0250244140625" y="37" style="font-size: 11px; dominant-baseline: text-after-edge; fill: rgb(161, 40, 100);">splendid-moon-15</text><text x="453.625" y="37" style="font-size: 11px; dominant-baseline: text-after-edge; fill: rgb(164, 103, 80);">━</text><text x="472.07501220703125" y="37" style="font-size: 11px; dominant-baseline: text-after-edge; fill: rgb(164, 103, 80);">breezy-fire-14</text><text x="573.4750366210938" y="37" style="font-size: 11px; dominant-baseline: text-after-edge; fill: rgb(160, 199, 92);">━</text><text x="591.9249877929688" y="37" style="font-size: 11px; dominant-baseline: text-after-edge; fill: rgb(160, 199, 92);">magic-elevator-13</text><text x="711.625" y="37" style="font-size: 11px; dominant-baseline: text-after-edge; fill: rgb(240, 184, 153);">━</text><text x="730.0750732421875" y="37" style="font-size: 11px; dominant-baseline: text-after-edge; fill: rgb(240, 184, 153);">volcanic-hill-12</text><text x="843.675048828125" y="37" style="font-size: 11px; dominant-baseline: text-after-edge; fill: rgb(197, 101, 199);">━</text><text x="862.125" y="37" style="font-size: 11px; dominant-baseline: text-after-edge; fill: rgb(197, 101, 199);">worthy-violet-8</text><text x="345.97503662109375" y="49.80000305175781" style="font-size: 11px; dominant-baseline: text-after-edge; fill: rgb(135, 206, 191);">━</text><text x="364.42498779296875" y="49.80000305175781" style="font-size: 11px; dominant-baseline: text-after-edge; fill: rgb(135, 206, 191);">kind-sound-7</text><text x="453.625" y="49.80000305175781" style="font-size: 11px; dominant-baseline: text-after-edge; fill: rgb(229, 116, 57);">━</text><text x="472.07501220703125" y="49.80000305175781" style="font-size: 11px; dominant-baseline: text-after-edge; fill: rgb(229, 116, 57);">bright-brook-6</text><text x="573.4750366210938" y="49.80000305175781" style="font-size: 11px; dominant-baseline: text-after-edge; fill: rgb(125, 84, 178);">━</text><text x="591.9249877929688" y="49.80000305175781" style="font-size: 11px; dominant-baseline: text-after-edge; fill: rgb(125, 84, 178);">vital-sun-4</text></g><style xmlns="http://www.w3.org/1999/xhtml">/*&lt;![CDATA[*/<br />text { font-family:sans-serif; font-size: 10px; fill: black }<br />.react-vis-magic-css-import-rule{display:inherit}.rv-treemap{font-size:12px;position:relative}.rv-treemap__leaf{overflow:hidden;position:absolute}.rv-treemap__leaf--circle{align-items:center;border-radius:100%;display:flex;justify-content:center}.rv-treemap__leaf__content{overflow:hidden;padding:10px;text-overflow:ellipsis}.rv-xy-plot{color:#c3c3c3;position:relative}.rv-xy-plot canvas{pointer-events:none}.rv-xy-plot .rv-xy-canvas{pointer-events:none;position:absolute}.rv-xy-plot__inner{display:block}.rv-xy-plot__axis__line{fill:none;stroke-width:2px;stroke:#e6e6e9}.rv-xy-plot__axis__tick__line{stroke:#e6e6e9}.rv-xy-plot__axis__tick__text{fill:#6b6b76;font-size:11px}.rv-xy-plot__axis__title text{fill:#6b6b76;font-size:11px}.rv-xy-plot__grid-lines__line{stroke:#e6e6e9}.rv-xy-plot__circular-grid-lines__line{fill-opacity:0;stroke:#e6e6e9}.rv-xy-plot__series,.rv-xy-plot__series path{pointer-events:all}.rv-xy-plot__series--line{fill:none;stroke:#000;stroke-width:2px}.rv-crosshair{position:absolute;font-size:11px;pointer-events:none}.rv-crosshair__line{background:#47d3d9;width:1px}.rv-crosshair__inner{position:absolute;text-align:left;top:0}.rv-crosshair__inner__content{border-radius:4px;background:#3a3a48;color:#fff;font-size:12px;padding:7px 10px;box-shadow:0 2px 4px rgba(0,0,0,0.5)}.rv-crosshair__inner--left{right:4px}.rv-crosshair__inner--right{left:4px}.rv-crosshair__title{font-weight:bold;white-space:nowrap}.rv-crosshair__item{white-space:nowrap}.rv-hint{position:absolute;pointer-events:none}.rv-hint__content{border-radius:4px;padding:7px 10px;font-size:12px;background:#3a3a48;box-shadow:0 2px 4px rgba(0,0,0,0.5);color:#fff;text-align:left;white-space:nowrap}.rv-discrete-color-legend{box-sizing:border-box;overflow-y:auto;font-size:12px}.rv-discrete-color-legend.horizontal{white-space:nowrap}.rv-discrete-color-legend-item{color:#3a3a48;border-radius:1px;padding:9px 10px}.rv-discrete-color-legend-item.horizontal{display:inline-block}.rv-discrete-color-legend-item.horizontal .rv-discrete-color-legend-item__title{margin-left:0;display:block}.rv-discrete-color-legend-item__color{display:inline-block;vertical-align:middle;overflow:visible}.rv-discrete-color-legend-item__color__path{stroke:#dcdcdc;stroke-width:2px}.rv-discrete-color-legend-item__title{margin-left:10px}.rv-discrete-color-legend-item.disabled{color:#b8b8b8}.rv-discrete-color-legend-item.clickable{cursor:pointer}.rv-discrete-color-legend-item.clickable:hover{background:#f9f9f9}.rv-search-wrapper{display:flex;flex-direction:column}.rv-search-wrapper__form{flex:0}.rv-search-wrapper__form__input{width:100%;color:#a6a6a5;border:1px solid #e5e5e4;padding:7px 10px;font-size:12px;box-sizing:border-box;border-radius:2px;margin:0 0 9px;outline:0}.rv-search-wrapper__contents{flex:1;overflow:auto}.rv-continuous-color-legend{font-size:12px}.rv-continuous-color-legend .rv-gradient{height:4px;border-radius:2px;margin-bottom:5px}.rv-continuous-size-legend{font-size:12px}.rv-continuous-size-legend .rv-bubbles{text-align:justify;overflow:hidden;margin-bottom:5px;width:100%}.rv-continuous-size-legend .rv-bubble{background:#d8d9dc;display:inline-block;vertical-align:bottom}.rv-continuous-size-legend .rv-spacer{display:inline-block;font-size:0;line-height:0;width:100%}.rv-legend-titles{height:16px;position:relative}.rv-legend-titles__left,.rv-legend-titles__right,.rv-legend-titles__center{position:absolute;white-space:nowrap;overflow:hidden}.rv-legend-titles__center{display:block;text-align:center;width:100%}.rv-legend-titles__right{right:0}.rv-radial-chart .rv-xy-plot__series--label{pointer-events:none}<br /><br />/*]]&gt;*/</style></svg>